<svg width="688" height="412" fill="none" xmlns="http://www.w3.org/2000/svg"><path d="M323 194c0 11.694-8.155 22.653-22.145 30.799C286.915 232.915 267.525 238 246 238s-40.915-5.085-54.855-13.201C177.155 216.653 169 205.694 169 194c0-11.694 8.155-22.653 22.145-30.799C205.085 155.085 224.475 150 246 150s40.915 5.085 54.855 13.201C314.845 171.347 323 182.306 323 194Z" fill="#fff" stroke="#000" stroke-width="4"/><path d="m226.25 197-.562-2.016h-3.563l-.578 2.016h-1.906l3.023-10.211h2.688L228.375 197h-2.125Zm-2.32-8.336-1.344 4.75h2.672l-1.328-4.75Zm11.984 8.031a5.971 5.971 0 0 1-1.164.336c-.401.073-.82.11-1.258.11-.63 0-1.195-.086-1.695-.258a3.374 3.374 0 0 1-1.274-.766 3.36 3.36 0 0 1-.804-1.258c-.183-.5-.274-1.078-.274-1.734 0-.635.099-1.211.297-1.727.203-.515.487-.955.852-1.32a3.751 3.751 0 0 1 1.312-.844 4.764 4.764 0 0 1 1.719-.296c.516 0 .948.028 1.297.085.354.053.672.12.953.204v1.851a4.803 4.803 0 0 0-1.055-.375 4.686 4.686 0 0 0-1.07-.133c-.354 0-.672.06-.953.18-.281.12-.518.286-.711.5a2.204 2.204 0 0 0-.445.781 3.2 3.2 0 0 0-.149 1c0 .38.055.722.164 1.024.11.302.263.56.461.773.203.208.445.37.727.484.281.11.594.165.937.165.167 0 .341-.011.524-.032.187-.026.372-.06.554-.101.188-.047.37-.099.547-.156.183-.058.352-.12.508-.188v1.695Zm8.922.227c-.344.078-.69.14-1.039.187-.349.047-.68.071-.992.071-.521 0-.972-.055-1.352-.164a2.385 2.385 0 0 1-.937-.5 2.04 2.04 0 0 1-.547-.852c-.115-.349-.172-.763-.172-1.242v-3.875h-2.133v-1.485h2.133v-2.031l1.953-.508v2.539h3.086v1.485h-3.086v3.734c0 .453.104.797.312 1.031.209.23.558.344 1.047.344.313 0 .618-.026.914-.078.297-.052.568-.112.813-.18v1.524Zm6.922-10.031a1.246 1.246 0 0 1-.36.882c-.109.11-.239.198-.39.266a1.265 1.265 0 0 1-.492.094c-.177 0-.344-.031-.5-.094a1.406 1.406 0 0 1-.399-.266 1.264 1.264 0 0 1-.351-.882 1.266 1.266 0 0 1 .351-.883c.115-.115.248-.203.399-.266.156-.068.323-.101.5-.101s.341.033.492.101c.151.063.281.151.39.266.115.114.204.247.266.398.063.151.094.313.094.485Zm-2.11 3.656h-2.242v-1.485h4.196v6.454h2.289V197h-6.758v-1.484h2.515v-4.969ZM260.32 197h-2.195l-3.148-7.938h2.125l1.648 4.5.492 1.454.485-1.391 1.664-4.563h2.047L260.32 197Zm11.274-4.578c0 .13-.005.299-.016.508-.005.208-.016.403-.031.586h-5.219c0 .349.052.656.156.922.11.265.261.489.454.671.197.177.432.313.703.407.276.093.58.14.914.14.385 0 .797-.028 1.234-.086.443-.062.901-.161 1.375-.297v1.516a8.514 8.514 0 0 1-.664.156c-.24.047-.484.089-.734.125-.25.037-.503.063-.758.078a9.062 9.062 0 0 1-.742.032 4.785 4.785 0 0 1-1.625-.258 3.243 3.243 0 0 1-1.219-.758 3.37 3.37 0 0 1-.766-1.25c-.177-.495-.265-1.068-.265-1.719 0-.646.088-1.231.265-1.757.177-.532.427-.985.75-1.36.323-.38.714-.672 1.172-.875a3.738 3.738 0 0 1 1.547-.312c.563 0 1.06.088 1.492.265.432.172.794.414 1.086.727.292.312.513.685.664 1.117.151.432.227.906.227 1.422Zm-1.938-.274a2.277 2.277 0 0 0-.117-.812 1.577 1.577 0 0 0-.344-.578 1.3 1.3 0 0 0-.5-.336 1.66 1.66 0 0 0-.609-.11c-.479 0-.872.162-1.18.485-.307.318-.489.768-.547 1.351h3.297Z" fill="#000"/><path d="M680 198c0 11.531-9.453 22.515-25.983 30.736C637.609 236.896 614.801 242 589.5 242c-25.301 0-48.109-5.104-64.517-13.264C508.453 220.515 499 209.531 499 198c0-11.531 9.453-22.515 25.983-30.736C541.391 159.104 564.199 154 589.5 154c25.301 0 48.109 5.104 64.517 13.264C670.547 175.485 680 186.469 680 198Z" fill="#fff" stroke="#000" stroke-width="4"/><path d="M562.695 186.766c0 .791-.099 1.51-.296 2.156a4.21 4.21 0 0 1-.915 1.656c-.411.453-.94.805-1.585 1.055-.646.245-1.42.367-2.321.367h-2.594v-10.211h3.024c.781 0 1.463.099 2.047.297a3.525 3.525 0 0 1 1.469.898c.39.407.682.922.875 1.547.197.625.296 1.37.296 2.235Zm-2.062.125a7.37 7.37 0 0 0-.133-1.477 2.806 2.806 0 0 0-.453-1.094 1.96 1.96 0 0 0-.844-.687c-.354-.156-.794-.235-1.32-.235h-.977v6.993h.844c.943 0 1.659-.282 2.149-.844.489-.563.734-1.448.734-2.656Zm8.539 5.109-.047-1.039a5.888 5.888 0 0 1-.523.492 3.367 3.367 0 0 1-.602.383 3.08 3.08 0 0 1-.719.25 3.566 3.566 0 0 1-.843.094c-.407 0-.763-.06-1.071-.18a2.152 2.152 0 0 1-.773-.5 2.145 2.145 0 0 1-.477-.773 3.062 3.062 0 0 1-.156-1c0-.375.078-.722.234-1.039.162-.318.404-.592.727-.821.328-.229.734-.409 1.219-.539.489-.13 1.062-.195 1.718-.195h1.04v-.477a1.64 1.64 0 0 0-.086-.547.972.972 0 0 0-.282-.421 1.257 1.257 0 0 0-.492-.266 2.562 2.562 0 0 0-.75-.094c-.469 0-.932.055-1.39.164a6.988 6.988 0 0 0-1.321.446v-1.524c.38-.151.818-.276 1.313-.375a7.984 7.984 0 0 1 1.554-.148c.589 0 1.094.057 1.516.171.422.11.768.277 1.039.5.276.224.479.506.609.844.131.334.196.724.196 1.172V192h-1.633Zm-.273-3.508h-1.165c-.322 0-.596.031-.82.094a1.555 1.555 0 0 0-.547.258c-.14.109-.244.237-.312.383a1.09 1.09 0 0 0-.094.453c0 .323.104.57.313.742.208.167.492.25.851.25.266 0 .542-.096.828-.289.287-.193.602-.469.946-.828v-1.063Zm10.64 3.43c-.344.078-.69.14-1.039.187-.349.047-.68.071-.992.071-.521 0-.971-.055-1.352-.164a2.385 2.385 0 0 1-.937-.5 2.04 2.04 0 0 1-.547-.852c-.115-.349-.172-.763-.172-1.242v-3.875h-2.133v-1.485h2.133v-2.031l1.953-.508v2.539h3.086v1.485h-3.086v3.734c0 .453.104.797.313 1.031.208.23.557.344 1.047.344.312 0 .617-.026.914-.078a8.57 8.57 0 0 0 .812-.18v1.524Zm7.227.078-.047-1.039a5.764 5.764 0 0 1-.524.492 3.323 3.323 0 0 1-.601.383 3.08 3.08 0 0 1-.719.25 3.569 3.569 0 0 1-.844.094 2.93 2.93 0 0 1-1.07-.18 2.152 2.152 0 0 1-.773-.5 2.118 2.118 0 0 1-.477-.773 3.062 3.062 0 0 1-.156-1c0-.375.078-.722.234-1.039.162-.318.404-.592.727-.821.328-.229.734-.409 1.218-.539.49-.13 1.063-.195 1.719-.195h1.039v-.477c0-.203-.028-.385-.086-.547a.97.97 0 0 0-.281-.421 1.257 1.257 0 0 0-.492-.266 2.562 2.562 0 0 0-.75-.094c-.469 0-.932.055-1.391.164a7.003 7.003 0 0 0-1.32.446v-1.524a7.994 7.994 0 0 1 2.867-.523c.589 0 1.094.057 1.516.171.422.11.768.277 1.039.5.276.224.479.506.609.844.13.334.196.724.196 1.172V192h-1.633Zm-.274-3.508h-1.164c-.323 0-.596.031-.82.094a1.555 1.555 0 0 0-.547.258 1.022 1.022 0 0 0-.312.383 1.09 1.09 0 0 0-.094.453c0 .323.104.57.312.742.209.167.492.25.852.25.265 0 .542-.096.828-.289.286-.193.602-.469.945-.828v-1.063Zm11.235-.601c0 .729-.104 1.359-.313 1.89a3.57 3.57 0 0 1-.859 1.328c-.365.349-.797.61-1.297.782-.5.166-1.044.25-1.633.25a9.333 9.333 0 0 1-1.617-.133 10.184 10.184 0 0 1-1.422-.344v-10.703h1.906v2.594l-.078 1.562c.287-.37.62-.666 1-.89.386-.224.847-.336 1.383-.336.469 0 .885.093 1.25.281.365.187.669.456.914.805.25.343.44.763.57 1.257.131.49.196 1.042.196 1.657Zm-2 .078c0-.438-.032-.81-.094-1.117a2.382 2.382 0 0 0-.274-.758 1.062 1.062 0 0 0-.429-.43 1.16 1.16 0 0 0-.578-.141c-.323 0-.633.131-.93.391-.292.26-.602.615-.93 1.063v3.468c.151.058.336.104.555.141.224.036.451.055.68.055a1.777 1.777 0 0 0 1.453-.719 2.46 2.46 0 0 0 .406-.836c.094-.333.141-.706.141-1.117Zm8.632 4.031-.046-1.039a5.898 5.898 0 0 1-.524.492 3.358 3.358 0 0 1-.601.383 3.097 3.097 0 0 1-.719.25 3.575 3.575 0 0 1-.844.094 2.93 2.93 0 0 1-1.07-.18 2.165 2.165 0 0 1-.774-.5 2.13 2.13 0 0 1-.476-.773 3.062 3.062 0 0 1-.156-1c0-.375.078-.722.234-1.039.161-.318.404-.592.726-.821.329-.229.735-.409 1.219-.539.49-.13 1.063-.195 1.719-.195h1.039v-.477a1.64 1.64 0 0 0-.086-.547.97.97 0 0 0-.281-.421 1.257 1.257 0 0 0-.492-.266 2.562 2.562 0 0 0-.75-.094 5.99 5.99 0 0 0-1.391.164 7.003 7.003 0 0 0-1.32.446v-1.524a7.987 7.987 0 0 1 2.867-.523c.588 0 1.094.057 1.516.171.421.11.768.277 1.039.5.276.224.479.506.609.844.13.334.195.724.195 1.172V192h-1.633Zm-.273-3.508h-1.164c-.323 0-.596.031-.82.094a1.546 1.546 0 0 0-.547.258 1.034 1.034 0 0 0-.313.383c-.062.14-.093.291-.093.453 0 .323.104.57.312.742.208.167.492.25.852.25.265 0 .541-.096.828-.289a6.04 6.04 0 0 0 .945-.828v-1.063Zm10.641 1.172c0 .453-.102.841-.305 1.164a2.383 2.383 0 0 1-.797.781 3.57 3.57 0 0 1-1.125.43 5.807 5.807 0 0 1-1.281.141c-.583 0-1.11-.029-1.578-.086a9.876 9.876 0 0 1-1.328-.235v-1.718c.489.203.976.351 1.461.445.489.088.95.133 1.382.133.5 0 .873-.078 1.118-.235.25-.161.375-.369.375-.625a.685.685 0 0 0-.079-.328.783.783 0 0 0-.296-.281 2.839 2.839 0 0 0-.602-.281c-.26-.099-.602-.209-1.023-.328a7.127 7.127 0 0 1-1.032-.368 2.703 2.703 0 0 1-.726-.492 1.868 1.868 0 0 1-.438-.648 2.483 2.483 0 0 1-.14-.875c0-.323.073-.628.218-.914.146-.287.362-.537.649-.75a3.322 3.322 0 0 1 1.086-.516c.432-.125.937-.187 1.515-.187.5 0 .943.026 1.328.078.386.052.727.109 1.024.172v1.554a7.748 7.748 0 0 0-1.281-.304 7.496 7.496 0 0 0-1.18-.094c-.391 0-.706.07-.945.211-.235.14-.352.336-.352.586 0 .12.024.226.07.32a.756.756 0 0 0 .274.274c.14.088.333.182.578.281.25.093.578.198.984.312.459.13.844.271 1.157.422.312.146.562.313.75.5.192.188.33.401.414.641.083.239.125.513.125.82Zm9.164-2.242c0 .13-.005.299-.016.508-.005.208-.016.403-.031.586h-5.219c0 .349.052.656.156.922.11.265.261.489.453.671.198.177.433.313.704.407.276.093.58.14.914.14.385 0 .797-.028 1.234-.086.443-.062.901-.161 1.375-.297v1.516a8.514 8.514 0 0 1-.664.156c-.24.047-.484.089-.734.125-.25.037-.503.063-.758.078a9.062 9.062 0 0 1-.742.032 4.785 4.785 0 0 1-1.625-.258 3.243 3.243 0 0 1-1.219-.758 3.37 3.37 0 0 1-.766-1.25c-.177-.495-.265-1.068-.265-1.719 0-.646.088-1.231.265-1.757.177-.532.427-.985.75-1.36.323-.38.714-.672 1.172-.875a3.738 3.738 0 0 1 1.547-.312c.562 0 1.06.088 1.492.265.432.172.794.414 1.086.727.292.312.513.685.664 1.117.151.432.227.906.227 1.422Zm-1.938-.274a2.277 2.277 0 0 0-.117-.812 1.577 1.577 0 0 0-.344-.578 1.3 1.3 0 0 0-.5-.336 1.66 1.66 0 0 0-.609-.11c-.479 0-.872.162-1.18.485-.307.318-.489.768-.547 1.351h3.297ZM534.078 210l-1.437-3.281c-.136-.313-.326-.547-.571-.703a1.48 1.48 0 0 0-.851-.243h-.367V210h-1.922v-10.211h2.976c.563 0 1.073.05 1.532.149.458.093.849.252 1.171.476.323.224.571.516.743.875.177.359.265.8.265 1.32 0 .375-.054.709-.164 1a2.262 2.262 0 0 1-.461.758 2.342 2.342 0 0 1-.711.508c-.27.13-.567.221-.89.273.25.053.479.196.687.43.209.229.417.563.625 1l1.633 3.422h-2.258Zm-.476-7.203c0-.5-.159-.859-.477-1.078-.318-.219-.794-.328-1.43-.328h-.843v2.882h.781c.297 0 .565-.031.805-.093.244-.063.453-.157.625-.282.171-.125.304-.278.398-.46.094-.188.141-.402.141-.641Zm11.117 2.625c0 .13-.005.299-.016.508a9.321 9.321 0 0 1-.031.586h-5.219c0 .349.052.656.156.922.11.265.261.489.454.671.198.177.432.313.703.407.276.093.58.14.914.14.385 0 .797-.028 1.234-.086.443-.062.901-.161 1.375-.297v1.516a8.514 8.514 0 0 1-.664.156c-.239.047-.484.089-.734.125-.25.037-.503.063-.758.078a9.062 9.062 0 0 1-.742.032 4.79 4.79 0 0 1-1.625-.258 3.251 3.251 0 0 1-1.219-.758 3.37 3.37 0 0 1-.766-1.25c-.177-.495-.265-1.068-.265-1.719 0-.646.088-1.231.265-1.757.177-.532.427-.985.75-1.36.323-.38.714-.672 1.172-.875a3.738 3.738 0 0 1 1.547-.312c.563 0 1.06.088 1.492.265.433.172.795.414 1.086.727.292.312.513.685.664 1.117.151.432.227.906.227 1.422Zm-1.938-.274a2.233 2.233 0 0 0-.117-.812 1.577 1.577 0 0 0-.344-.578 1.3 1.3 0 0 0-.5-.336 1.66 1.66 0 0 0-.609-.11c-.479 0-.872.162-1.18.485-.307.318-.489.768-.547 1.351h3.297Zm10.961.743c0 .729-.104 1.359-.312 1.89-.203.531-.49.974-.86 1.328-.364.349-.796.61-1.296.782a5.157 5.157 0 0 1-2.227.211 4.433 4.433 0 0 1-.539-.102v3.102h-1.906v-11.04h1.648l.047 1.172c.161-.203.328-.388.5-.554.177-.167.367-.308.57-.422.203-.12.422-.211.657-.274.234-.062.497-.093.789-.093.468 0 .885.093 1.25.281.364.187.669.456.914.805.25.343.44.763.57 1.257.13.49.195 1.042.195 1.657Zm-2 .078c0-.438-.031-.81-.093-1.117a2.382 2.382 0 0 0-.274-.758 1.064 1.064 0 0 0-.43-.43 1.154 1.154 0 0 0-.578-.141c-.323 0-.633.131-.929.391-.292.26-.602.615-.93 1.063v3.468c.151.058.336.104.555.141.224.036.45.055.679.055a1.781 1.781 0 0 0 1.453-.719c.178-.229.313-.508.407-.836.093-.333.14-.706.14-1.117Zm8.766-.821a3.33 3.33 0 0 0-.047-.757 1.362 1.362 0 0 0-.187-.516.786.786 0 0 0-.313-.297.955.955 0 0 0-.43-.094c-.281 0-.573.118-.875.352-.297.229-.625.609-.984 1.141V210h-1.953v-7.938h1.726l.071 1.157a2.764 2.764 0 0 1 .984-.961 2.57 2.57 0 0 1 .672-.274c.245-.062.513-.093.805-.093.401 0 .755.07 1.062.211.313.135.573.338.781.609.214.271.37.612.469 1.023.104.407.149.878.133 1.414h-1.914Zm10.601.274c0 .13-.005.299-.015.508-.005.208-.016.403-.031.586h-5.219c0 .349.052.656.156.922.109.265.261.489.453.671.198.177.433.313.703.407.276.093.581.14.914.14.386 0 .797-.028 1.235-.086.443-.062.901-.161 1.375-.297v1.516a8.623 8.623 0 0 1-.664.156 14.8 14.8 0 0 1-.735.125c-.25.037-.502.063-.757.078a9.086 9.086 0 0 1-.743.032 4.793 4.793 0 0 1-1.625-.258 3.247 3.247 0 0 1-1.218-.758 3.357 3.357 0 0 1-.766-1.25c-.177-.495-.266-1.068-.266-1.719 0-.646.089-1.231.266-1.757.177-.532.427-.985.75-1.36.323-.38.714-.672 1.172-.875a3.734 3.734 0 0 1 1.547-.312c.562 0 1.06.088 1.492.265.432.172.794.414 1.086.727.292.312.513.685.664 1.117.151.432.226.906.226 1.422Zm-1.937-.274a2.277 2.277 0 0 0-.117-.812 1.59 1.59 0 0 0-.344-.578 1.308 1.308 0 0 0-.5-.336 1.664 1.664 0 0 0-.609-.11c-.479 0-.873.162-1.18.485-.307.318-.49.768-.547 1.351h3.297Zm10.367 2.516c0 .453-.101.841-.305 1.164a2.37 2.37 0 0 1-.796.781 3.588 3.588 0 0 1-1.125.43 5.81 5.81 0 0 1-1.282.141c-.583 0-1.109-.029-1.578-.086a9.904 9.904 0 0 1-1.328-.235v-1.718a7.6 7.6 0 0 0 1.461.445c.49.088.951.133 1.383.133.5 0 .872-.078 1.117-.235.25-.161.375-.369.375-.625a.696.696 0 0 0-.078-.328.78.78 0 0 0-.297-.281 2.815 2.815 0 0 0-.602-.281c-.26-.099-.601-.209-1.023-.328a7.112 7.112 0 0 1-1.031-.368 2.709 2.709 0 0 1-.727-.492 1.88 1.88 0 0 1-.437-.648 2.482 2.482 0 0 1-.141-.875c0-.323.073-.628.219-.914a2.15 2.15 0 0 1 .648-.75 3.341 3.341 0 0 1 1.086-.516c.433-.125.938-.187 1.516-.187.5 0 .943.026 1.328.078.385.052.727.109 1.023.172v1.554a7.748 7.748 0 0 0-1.281-.304 7.496 7.496 0 0 0-1.18-.094c-.39 0-.705.07-.945.211-.234.14-.351.336-.351.586 0 .12.023.226.07.32a.76.76 0 0 0 .273.274c.141.088.334.182.578.281.25.093.579.198.985.312a7.2 7.2 0 0 1 1.156.422c.313.146.563.313.75.5.193.188.331.401.414.641.084.239.125.513.125.82Zm9.164-2.242c0 .13-.005.299-.015.508-.006.208-.016.403-.032.586h-5.218c0 .349.052.656.156.922.109.265.26.489.453.671.198.177.432.313.703.407.276.093.581.14.914.14.386 0 .797-.028 1.235-.086.442-.062.901-.161 1.375-.297v1.516a8.653 8.653 0 0 1-.665.156c-.239.047-.484.089-.734.125-.25.037-.502.063-.758.078a9.044 9.044 0 0 1-.742.032 4.79 4.79 0 0 1-1.625-.258 3.259 3.259 0 0 1-1.219-.758 3.368 3.368 0 0 1-.765-1.25c-.177-.495-.266-1.068-.266-1.719 0-.646.089-1.231.266-1.757.177-.532.427-.985.75-1.36.323-.38.713-.672 1.172-.875a3.733 3.733 0 0 1 1.546-.312c.563 0 1.06.088 1.493.265.432.172.794.414 1.086.727.291.312.513.685.664 1.117.151.432.226.906.226 1.422Zm-1.937-.274a2.277 2.277 0 0 0-.117-.812 1.59 1.59 0 0 0-.344-.578 1.308 1.308 0 0 0-.5-.336 1.67 1.67 0 0 0-.61-.11c-.479 0-.872.162-1.179.485-.308.318-.49.768-.547 1.351h3.297ZM595.32 210v-5.172c0-.87-.322-1.305-.968-1.305-.323 0-.633.131-.93.391-.292.26-.602.615-.93 1.063V210h-1.906v-7.938h1.648l.047 1.172c.162-.203.328-.388.5-.554.177-.167.368-.308.571-.422.203-.12.422-.211.656-.274.234-.062.497-.093.789-.093.406 0 .76.067 1.062.203.303.13.555.317.758.562.203.24.354.532.453.875.105.339.157.719.157 1.141V210h-1.907Zm10.61-.078c-.344.078-.69.14-1.039.187-.349.047-.68.071-.992.071-.521 0-.972-.055-1.352-.164a2.389 2.389 0 0 1-.938-.5 2.039 2.039 0 0 1-.546-.852c-.115-.349-.172-.763-.172-1.242v-3.875h-2.133v-1.485h2.133v-2.031l1.953-.508v2.539h3.086v1.485h-3.086v3.734c0 .453.104.797.312 1.031.209.23.558.344 1.047.344.313 0 .617-.026.914-.078.297-.052.568-.112.813-.18v1.524Zm7.226.078-.047-1.039a5.753 5.753 0 0 1-.523.492 3.331 3.331 0 0 1-.602.383 3.073 3.073 0 0 1-.718.25 3.575 3.575 0 0 1-.844.094 2.93 2.93 0 0 1-1.07-.18 2.157 2.157 0 0 1-.774-.5 2.13 2.13 0 0 1-.476-.773 3.062 3.062 0 0 1-.157-1c0-.375.079-.722.235-1.039.161-.318.403-.592.726-.821.328-.229.735-.409 1.219-.539.49-.13 1.063-.195 1.719-.195h1.039v-.477a1.64 1.64 0 0 0-.086-.547.97.97 0 0 0-.281-.421 1.257 1.257 0 0 0-.492-.266 2.572 2.572 0 0 0-.75-.094 5.99 5.99 0 0 0-1.391.164 7.003 7.003 0 0 0-1.32.446v-1.524a7.987 7.987 0 0 1 2.867-.523c.588 0 1.094.057 1.515.171.422.11.769.277 1.039.5.277.224.48.506.61.844.13.334.195.724.195 1.172V210h-1.633Zm-.273-3.508h-1.164c-.323 0-.596.031-.82.094a1.546 1.546 0 0 0-.547.258 1.034 1.034 0 0 0-.313.383c-.062.14-.094.291-.094.453 0 .323.105.57.313.742.208.167.492.25.851.25.266 0 .542-.096.829-.289a6.04 6.04 0 0 0 .945-.828v-1.063Zm10.641 3.43c-.344.078-.691.14-1.04.187a7.431 7.431 0 0 1-.992.071 4.93 4.93 0 0 1-1.351-.164 2.389 2.389 0 0 1-.938-.5 2.04 2.04 0 0 1-.547-.852 4.014 4.014 0 0 1-.172-1.242v-3.875h-2.132v-1.485h2.132v-2.031l1.954-.508v2.539h3.086v1.485h-3.086v3.734c0 .453.104.797.312 1.031.208.23.557.344 1.047.344.312 0 .617-.026.914-.078.297-.052.568-.112.813-.18v1.524Zm6.921-10.031a1.21 1.21 0 0 1-.359.882c-.109.11-.24.198-.391.266a1.265 1.265 0 0 1-.492.094c-.177 0-.344-.031-.5-.094a1.387 1.387 0 0 1-.398-.266 1.253 1.253 0 0 1-.258-.398 1.246 1.246 0 0 1-.094-.484c0-.172.031-.334.094-.485.062-.151.148-.284.258-.398a1.21 1.21 0 0 1 .398-.266c.156-.068.323-.101.5-.101s.341.033.492.101c.151.063.282.151.391.266a1.21 1.21 0 0 1 .359.883Zm-2.109 3.656h-2.242v-1.485h4.195v6.454h2.289V210h-6.758v-1.484h2.516v-4.969Zm13.383 2.422c0 .625-.089 1.198-.266 1.719a3.81 3.81 0 0 1-.765 1.328 3.41 3.41 0 0 1-1.227.859c-.484.203-1.036.305-1.656.305-.589 0-1.115-.086-1.578-.258a3.082 3.082 0 0 1-1.18-.766 3.452 3.452 0 0 1-.742-1.281c-.172-.516-.258-1.115-.258-1.797 0-.63.089-1.203.266-1.719a3.82 3.82 0 0 1 .773-1.32c.339-.365.75-.646 1.234-.844.485-.203 1.032-.304 1.641-.304.594 0 1.122.088 1.586.265.464.172.857.43 1.18.774.323.343.567.771.734 1.281.172.505.258 1.091.258 1.758Zm-1.985.047c0-.823-.156-1.44-.468-1.852-.308-.417-.763-.625-1.367-.625-.334 0-.618.065-.852.195-.234.131-.427.31-.578.539a2.412 2.412 0 0 0-.336.789 4.417 4.417 0 0 0-.102.969c0 .828.167 1.453.5 1.875.334.417.789.625 1.368.625.317 0 .593-.062.828-.187.234-.13.424-.308.57-.532.146-.229.255-.497.328-.804.073-.307.109-.638.109-.992Zm8.368 3.984v-5.172c0-.87-.323-1.305-.969-1.305-.323 0-.633.131-.93.391-.291.26-.601.615-.929 1.063V210h-1.907v-7.938h1.649l.047 1.172c.161-.203.328-.388.5-.554.177-.167.367-.308.57-.422.203-.12.422-.211.656-.274.235-.062.498-.093.789-.093.406 0 .761.067 1.063.203.302.13.554.317.758.562.203.24.354.532.453.875.104.339.156.719.156 1.141V210h-1.906Z" fill="#000"/><path d="M686 366c0 11.449-10.174 22.452-28.125 30.71C640.096 404.888 615.393 410 588 410s-52.096-5.112-69.875-13.29C500.174 388.452 490 377.449 490 366c0-11.449 10.174-22.452 28.125-30.71C535.904 327.112 560.607 322 588 322s52.096 5.112 69.875 13.29C675.826 343.548 686 354.551 686 366Z" fill="#fff" stroke="#000" stroke-width="4"/><path d="M548 354.766c0 .791-.099 1.51-.297 2.156a4.208 4.208 0 0 1-.914 1.656c-.411.453-.94.805-1.586 1.055-.646.245-1.419.367-2.32.367h-2.594v-10.211h3.023c.782 0 1.464.099 2.047.297a3.518 3.518 0 0 1 1.469.898c.391.407.682.922.875 1.547.198.625.297 1.37.297 2.235Zm-2.063.125c0-.552-.044-1.045-.132-1.477a2.836 2.836 0 0 0-.453-1.094 1.966 1.966 0 0 0-.844-.687c-.354-.156-.794-.235-1.321-.235h-.976v6.993h.844c.942 0 1.659-.282 2.148-.844.49-.563.734-1.448.734-2.656Zm8.54 5.109-.047-1.039a5.764 5.764 0 0 1-.524.492 3.358 3.358 0 0 1-.601.383 3.097 3.097 0 0 1-.719.25 3.575 3.575 0 0 1-.844.094 2.93 2.93 0 0 1-1.07-.18 2.165 2.165 0 0 1-.774-.5 2.13 2.13 0 0 1-.476-.773 3.062 3.062 0 0 1-.156-1c0-.375.078-.722.234-1.039.161-.318.404-.592.727-.821.328-.229.734-.409 1.218-.539.49-.13 1.063-.195 1.719-.195h1.039v-.477a1.64 1.64 0 0 0-.086-.547.97.97 0 0 0-.281-.421 1.257 1.257 0 0 0-.492-.266 2.562 2.562 0 0 0-.75-.094 5.99 5.99 0 0 0-1.391.164 7.003 7.003 0 0 0-1.32.446v-1.524a7.994 7.994 0 0 1 2.867-.523c.589 0 1.094.057 1.516.171.421.11.768.277 1.039.5.276.224.479.506.609.844.13.334.195.724.195 1.172V360h-1.632Zm-.274-3.508h-1.164c-.323 0-.596.031-.82.094a1.546 1.546 0 0 0-.547.258 1.034 1.034 0 0 0-.313.383c-.062.14-.093.291-.093.453 0 .323.104.57.312.742.208.167.492.25.852.25.265 0 .541-.096.828-.289a6.04 6.04 0 0 0 .945-.828v-1.063Zm10.641 3.43c-.344.078-.69.14-1.039.187-.349.047-.68.071-.993.071-.52 0-.971-.055-1.351-.164a2.389 2.389 0 0 1-.938-.5 2.039 2.039 0 0 1-.546-.852c-.115-.349-.172-.763-.172-1.242v-3.875h-2.133v-1.485h2.133v-2.031l1.953-.508v2.539h3.086v1.485h-3.086v3.734c0 .453.104.797.312 1.031.209.23.558.344 1.047.344.313 0 .617-.026.914-.078.297-.052.568-.112.813-.18v1.524Zm7.226.078-.047-1.039a5.753 5.753 0 0 1-.523.492 3.331 3.331 0 0 1-.602.383 3.073 3.073 0 0 1-.718.25 3.581 3.581 0 0 1-.844.094 2.93 2.93 0 0 1-1.07-.18 2.148 2.148 0 0 1-.774-.5 2.13 2.13 0 0 1-.476-.773 3.036 3.036 0 0 1-.157-1c0-.375.078-.722.235-1.039.161-.318.403-.592.726-.821.328-.229.735-.409 1.219-.539.49-.13 1.063-.195 1.719-.195h1.039v-.477a1.64 1.64 0 0 0-.086-.547.97.97 0 0 0-.281-.421 1.254 1.254 0 0 0-.493-.266 2.562 2.562 0 0 0-.75-.094c-.468 0-.932.055-1.39.164a7.003 7.003 0 0 0-1.32.446v-1.524a7.987 7.987 0 0 1 2.867-.523c.588 0 1.093.057 1.515.171.422.11.769.277 1.039.5.276.224.48.506.61.844.13.334.195.724.195 1.172V360h-1.633Zm-.273-3.508h-1.164c-.323 0-.597.031-.821.094a1.55 1.55 0 0 0-.546.258 1.034 1.034 0 0 0-.313.383c-.062.14-.094.291-.094.453 0 .323.105.57.313.742.208.167.492.25.851.25.266 0 .542-.096.829-.289a6.04 6.04 0 0 0 .945-.828v-1.063Zm11.234-.601c0 .729-.104 1.359-.312 1.89-.203.531-.49.974-.86 1.328-.364.349-.797.61-1.297.782-.5.166-1.044.25-1.632.25a9.345 9.345 0 0 1-1.618-.133 10.204 10.204 0 0 1-1.421-.344v-10.703h1.906v2.594l-.078 1.562c.286-.37.62-.666 1-.89.385-.224.846-.336 1.383-.336.468 0 .885.093 1.25.281.364.187.669.456.914.805.25.343.44.763.57 1.257.13.49.195 1.042.195 1.657Zm-2 .078c0-.438-.031-.81-.094-1.117a2.359 2.359 0 0 0-.273-.758 1.07 1.07 0 0 0-.43-.43 1.154 1.154 0 0 0-.578-.141c-.323 0-.633.131-.929.391-.292.26-.602.615-.93 1.063v3.468c.151.058.336.104.555.141.223.036.45.055.679.055a1.781 1.781 0 0 0 1.453-.719 2.46 2.46 0 0 0 .407-.836c.093-.333.14-.706.14-1.117Zm8.633 4.031-.047-1.039a5.888 5.888 0 0 1-.523.492 3.367 3.367 0 0 1-.602.383 3.08 3.08 0 0 1-.719.25 3.566 3.566 0 0 1-.843.094c-.407 0-.763-.06-1.071-.18a2.152 2.152 0 0 1-.773-.5 2.145 2.145 0 0 1-.477-.773 3.062 3.062 0 0 1-.156-1c0-.375.078-.722.234-1.039.162-.318.404-.592.727-.821.328-.229.734-.409 1.219-.539.489-.13 1.062-.195 1.719-.195h1.039v-.477a1.64 1.64 0 0 0-.086-.547.972.972 0 0 0-.282-.421 1.257 1.257 0 0 0-.492-.266 2.562 2.562 0 0 0-.75-.094c-.469 0-.932.055-1.39.164a6.988 6.988 0 0 0-1.321.446v-1.524c.38-.151.818-.276 1.313-.375a7.984 7.984 0 0 1 1.554-.148c.589 0 1.094.057 1.516.171.422.11.768.277 1.039.5.276.224.479.506.61.844.13.334.195.724.195 1.172V360h-1.633Zm-.273-3.508h-1.164c-.323 0-.597.031-.821.094a1.555 1.555 0 0 0-.547.258c-.14.109-.244.237-.312.383a1.09 1.09 0 0 0-.094.453c0 .323.104.57.313.742.208.167.492.25.851.25.266 0 .542-.096.828-.289.287-.193.602-.469.946-.828v-1.063Zm10.64 1.172c0 .453-.101.841-.304 1.164a2.383 2.383 0 0 1-.797.781 3.57 3.57 0 0 1-1.125.43 5.81 5.81 0 0 1-1.282.141c-.583 0-1.109-.029-1.578-.086a9.933 9.933 0 0 1-1.328-.235v-1.718a7.6 7.6 0 0 0 1.461.445c.49.088.951.133 1.383.133.5 0 .872-.078 1.117-.235.25-.161.375-.369.375-.625a.696.696 0 0 0-.078-.328.78.78 0 0 0-.297-.281 2.827 2.827 0 0 0-.601-.281 12.665 12.665 0 0 0-1.024-.328 7.112 7.112 0 0 1-1.031-.368 2.709 2.709 0 0 1-.727-.492 1.88 1.88 0 0 1-.437-.648 2.482 2.482 0 0 1-.141-.875c0-.323.073-.628.219-.914a2.15 2.15 0 0 1 .648-.75 3.341 3.341 0 0 1 1.086-.516c.433-.125.938-.187 1.516-.187.5 0 .943.026 1.328.078.385.052.727.109 1.023.172v1.554a7.748 7.748 0 0 0-1.281-.304 7.493 7.493 0 0 0-1.179-.094c-.391 0-.706.07-.946.211-.234.14-.351.336-.351.586 0 .12.023.226.07.32a.76.76 0 0 0 .273.274c.141.088.334.182.579.281.25.093.578.198.984.312a7.2 7.2 0 0 1 1.156.422c.313.146.563.313.75.5.193.188.331.401.414.641.084.239.125.513.125.82Zm9.164-2.242c0 .13-.005.299-.015.508-.006.208-.016.403-.032.586h-5.218c0 .349.052.656.156.922.109.265.26.489.453.671.198.177.432.313.703.407.276.093.581.14.914.14.386 0 .797-.028 1.235-.086.442-.062.901-.161 1.375-.297v1.516a8.734 8.734 0 0 1-.664.156 14.8 14.8 0 0 1-.735.125c-.25.037-.502.063-.758.078a9.044 9.044 0 0 1-.742.032 4.79 4.79 0 0 1-1.625-.258 3.259 3.259 0 0 1-1.219-.758 3.368 3.368 0 0 1-.765-1.25c-.177-.495-.266-1.068-.266-1.719 0-.646.089-1.231.266-1.757.177-.532.427-.985.75-1.36.323-.38.713-.672 1.172-.875a3.734 3.734 0 0 1 1.547-.312c.562 0 1.059.088 1.492.265.432.172.794.414 1.086.727.291.312.513.685.664 1.117.151.432.226.906.226 1.422Zm-1.937-.274a2.277 2.277 0 0 0-.117-.812 1.59 1.59 0 0 0-.344-.578 1.308 1.308 0 0 0-.5-.336 1.67 1.67 0 0 0-.61-.11c-.479 0-.872.162-1.179.485-.308.318-.49.768-.547 1.351h3.297Zm19.765.821c0 .625-.088 1.198-.265 1.719a3.811 3.811 0 0 1-.766 1.328 3.397 3.397 0 0 1-1.226.859c-.485.203-1.037.305-1.657.305a4.518 4.518 0 0 1-1.578-.258 3.079 3.079 0 0 1-1.179-.766 3.454 3.454 0 0 1-.743-1.281c-.172-.516-.257-1.115-.257-1.797 0-.63.088-1.203.265-1.719.182-.515.44-.955.774-1.32.338-.365.75-.646 1.234-.844.484-.203 1.031-.304 1.641-.304.593 0 1.122.088 1.586.265.463.172.856.43 1.179.774.323.343.568.771.735 1.281.171.505.257 1.091.257 1.758Zm-1.984.047c0-.823-.156-1.44-.469-1.852-.307-.417-.763-.625-1.367-.625-.333 0-.617.065-.851.195-.235.131-.428.31-.579.539a2.412 2.412 0 0 0-.336.789 4.48 4.48 0 0 0-.101.969c0 .828.167 1.453.5 1.875.333.417.789.625 1.367.625.318 0 .594-.062.828-.187.235-.13.425-.308.571-.532.145-.229.255-.497.328-.804.073-.307.109-.638.109-.992Zm8.742-.868a3.274 3.274 0 0 0-.047-.757 1.362 1.362 0 0 0-.187-.516.78.78 0 0 0-.313-.297.953.953 0 0 0-.429-.094c-.282 0-.573.118-.875.352-.297.229-.625.609-.985 1.141V360h-1.953v-7.938h1.727l.07 1.157c.13-.203.276-.386.438-.547a2.729 2.729 0 0 1 1.218-.688c.245-.062.513-.093.805-.093.401 0 .755.07 1.062.211.313.135.573.338.782.609.213.271.37.612.468 1.023.105.407.149.878.133 1.414h-1.914ZM507.82 369.414v2.828h3.86v1.578h-3.86V378h-1.953v-10.211h6.031v1.625h-4.078Zm11.164-1.523a1.21 1.21 0 0 1-.359.882c-.109.11-.24.198-.391.266a1.265 1.265 0 0 1-.492.094c-.177 0-.344-.031-.5-.094a1.387 1.387 0 0 1-.398-.266 1.253 1.253 0 0 1-.258-.398 1.246 1.246 0 0 1-.094-.484c0-.172.031-.334.094-.485.062-.151.148-.284.258-.398a1.21 1.21 0 0 1 .398-.266c.156-.068.323-.101.5-.101s.341.033.492.101c.151.063.282.151.391.266a1.21 1.21 0 0 1 .359.883Zm-2.109 3.656h-2.242v-1.485h4.195v6.454h2.289V378h-6.758v-1.484h2.516v-4.969Zm8.797-3.102h-2.242v-1.484h4.195v9.555h2.289V378h-6.758v-1.484h2.516v-8.071Zm13.148 4.977c0 .13-.005.299-.015.508-.006.208-.016.403-.032.586h-5.218c0 .349.052.656.156.922.109.265.26.489.453.671.198.177.432.313.703.407.276.093.581.14.914.14.386 0 .797-.028 1.235-.086.442-.062.901-.161 1.375-.297v1.516a8.734 8.734 0 0 1-.664.156 14.8 14.8 0 0 1-.735.125c-.25.037-.502.063-.758.078a9.044 9.044 0 0 1-.742.032 4.79 4.79 0 0 1-1.625-.258 3.259 3.259 0 0 1-1.219-.758 3.368 3.368 0 0 1-.765-1.25c-.177-.495-.266-1.068-.266-1.719 0-.646.089-1.231.266-1.757.177-.532.427-.985.75-1.36.323-.38.713-.672 1.172-.875a3.734 3.734 0 0 1 1.547-.312c.562 0 1.059.088 1.492.265.432.172.794.414 1.086.727.291.312.513.685.664 1.117.151.432.226.906.226 1.422Zm-1.937-.274a2.277 2.277 0 0 0-.117-.812 1.59 1.59 0 0 0-.344-.578 1.308 1.308 0 0 0-.5-.336 1.67 1.67 0 0 0-.61-.11c-.479 0-.872.162-1.179.485-.308.318-.49.768-.547 1.351h3.297ZM554.57 378l-1.437-3.281c-.136-.313-.326-.547-.571-.703a1.48 1.48 0 0 0-.851-.243h-.367V378h-1.922v-10.211h2.976c.563 0 1.073.05 1.532.149.458.093.849.252 1.172.476.322.224.57.516.742.875.177.359.265.8.265 1.32 0 .375-.054.709-.164 1a2.262 2.262 0 0 1-.461.758 2.342 2.342 0 0 1-.711.508c-.27.13-.567.221-.89.273.25.053.479.196.687.43.209.229.417.563.625 1l1.633 3.422h-2.258Zm-.476-7.203c0-.5-.159-.859-.477-1.078-.318-.219-.794-.328-1.43-.328h-.843v2.882h.781c.297 0 .565-.031.805-.093.244-.063.453-.157.625-.282.172-.125.304-.278.398-.46.094-.188.141-.402.141-.641Zm11.117 2.625c0 .13-.005.299-.016.508a9.321 9.321 0 0 1-.031.586h-5.219c0 .349.052.656.157.922.109.265.26.489.453.671.198.177.432.313.703.407.276.093.581.14.914.14.385 0 .797-.028 1.234-.086.443-.062.901-.161 1.375-.297v1.516a8.514 8.514 0 0 1-.664.156c-.239.047-.484.089-.734.125-.25.037-.503.063-.758.078a9.062 9.062 0 0 1-.742.032 4.79 4.79 0 0 1-1.625-.258 3.251 3.251 0 0 1-1.219-.758 3.37 3.37 0 0 1-.766-1.25c-.177-.495-.265-1.068-.265-1.719 0-.646.088-1.231.265-1.757.177-.532.427-.985.75-1.36.323-.38.714-.672 1.172-.875a3.738 3.738 0 0 1 1.547-.312c.563 0 1.06.088 1.492.265.433.172.795.414 1.086.727.292.312.513.685.664 1.117.151.432.227.906.227 1.422Zm-1.938-.274a2.233 2.233 0 0 0-.117-.812 1.577 1.577 0 0 0-.344-.578 1.3 1.3 0 0 0-.5-.336 1.66 1.66 0 0 0-.609-.11c-.479 0-.872.162-1.18.485-.307.318-.489.768-.546 1.351h3.296Zm10.961.743c0 .729-.104 1.359-.312 1.89-.203.531-.49.974-.86 1.328-.364.349-.796.61-1.296.782a5.157 5.157 0 0 1-2.227.211A4.433 4.433 0 0 1 569 378v3.102h-1.906v-11.04h1.648l.047 1.172c.161-.203.328-.388.5-.554.177-.167.367-.308.57-.422.203-.12.422-.211.657-.274.234-.062.497-.093.789-.093.468 0 .885.093 1.25.281.364.187.669.456.914.805.25.343.44.763.57 1.257.13.49.195 1.042.195 1.657Zm-2 .078c0-.438-.031-.81-.093-1.117a2.382 2.382 0 0 0-.274-.758 1.064 1.064 0 0 0-.43-.43 1.154 1.154 0 0 0-.578-.141c-.323 0-.632.131-.929.391-.292.26-.602.615-.93 1.063v3.468c.151.058.336.104.555.141.224.036.45.055.679.055a1.781 1.781 0 0 0 1.453-.719c.178-.229.313-.508.407-.836.093-.333.14-.706.14-1.117Zm8.766-.821a3.33 3.33 0 0 0-.047-.757 1.362 1.362 0 0 0-.187-.516.786.786 0 0 0-.313-.297.955.955 0 0 0-.43-.094c-.281 0-.573.118-.875.352-.296.229-.625.609-.984 1.141V378h-1.953v-7.938h1.726l.071 1.157a2.764 2.764 0 0 1 .984-.961 2.57 2.57 0 0 1 .672-.274c.245-.062.513-.093.805-.093.401 0 .755.07 1.062.211.313.135.573.338.781.609.214.271.37.612.469 1.023.104.407.149.878.133 1.414H581Zm10.602.274c0 .13-.006.299-.016.508-.005.208-.016.403-.031.586h-5.219c0 .349.052.656.156.922.11.265.261.489.453.671.198.177.433.313.703.407.276.093.581.14.914.14.386 0 .797-.028 1.235-.086.443-.062.901-.161 1.375-.297v1.516a8.623 8.623 0 0 1-.664.156 14.8 14.8 0 0 1-.735.125c-.25.037-.502.063-.757.078a9.086 9.086 0 0 1-.743.032 4.793 4.793 0 0 1-1.625-.258 3.247 3.247 0 0 1-1.218-.758 3.357 3.357 0 0 1-.766-1.25c-.177-.495-.266-1.068-.266-1.719 0-.646.089-1.231.266-1.757.177-.532.427-.985.75-1.36.323-.38.714-.672 1.172-.875a3.734 3.734 0 0 1 1.547-.312c.562 0 1.06.088 1.492.265.432.172.794.414 1.086.727.292.312.513.685.664 1.117.151.432.227.906.227 1.422Zm-1.938-.274a2.277 2.277 0 0 0-.117-.812 1.577 1.577 0 0 0-.344-.578 1.308 1.308 0 0 0-.5-.336 1.664 1.664 0 0 0-.609-.11c-.479 0-.873.162-1.18.485-.307.318-.49.768-.547 1.351h3.297Zm10.367 2.516c0 .453-.101.841-.304 1.164a2.383 2.383 0 0 1-.797.781 3.57 3.57 0 0 1-1.125.43 5.81 5.81 0 0 1-1.282.141c-.583 0-1.109-.029-1.578-.086a9.933 9.933 0 0 1-1.328-.235v-1.718a7.6 7.6 0 0 0 1.461.445c.49.088.951.133 1.383.133.5 0 .872-.078 1.117-.235.25-.161.375-.369.375-.625a.696.696 0 0 0-.078-.328.78.78 0 0 0-.297-.281 2.827 2.827 0 0 0-.601-.281 12.665 12.665 0 0 0-1.024-.328 7.112 7.112 0 0 1-1.031-.368 2.709 2.709 0 0 1-.727-.492 1.88 1.88 0 0 1-.437-.648 2.482 2.482 0 0 1-.141-.875c0-.323.073-.628.219-.914a2.15 2.15 0 0 1 .648-.75 3.341 3.341 0 0 1 1.086-.516c.433-.125.938-.187 1.516-.187.5 0 .943.026 1.328.078.385.052.727.109 1.023.172v1.554a7.748 7.748 0 0 0-1.281-.304 7.493 7.493 0 0 0-1.179-.094c-.391 0-.706.07-.946.211-.234.14-.351.336-.351.586 0 .12.023.226.07.32a.76.76 0 0 0 .273.274c.141.088.334.182.579.281.25.093.578.198.984.312a7.2 7.2 0 0 1 1.156.422c.313.146.563.313.75.5.193.188.331.401.414.641.084.239.125.513.125.82Zm9.164-2.242c0 .13-.005.299-.015.508-.006.208-.016.403-.032.586h-5.218c0 .349.052.656.156.922.109.265.26.489.453.671.198.177.432.313.703.407.276.093.581.14.914.14.386 0 .797-.028 1.235-.086.442-.062.901-.161 1.375-.297v1.516a8.734 8.734 0 0 1-.664.156 14.8 14.8 0 0 1-.735.125c-.25.037-.502.063-.758.078a9.044 9.044 0 0 1-.742.032 4.79 4.79 0 0 1-1.625-.258 3.259 3.259 0 0 1-1.219-.758 3.368 3.368 0 0 1-.765-1.25c-.177-.495-.266-1.068-.266-1.719 0-.646.089-1.231.266-1.757.177-.532.427-.985.75-1.36.323-.38.713-.672 1.172-.875a3.734 3.734 0 0 1 1.547-.312c.562 0 1.059.088 1.492.265.432.172.794.414 1.086.727.291.312.513.685.664 1.117.151.432.226.906.226 1.422Zm-1.937-.274a2.277 2.277 0 0 0-.117-.812 1.59 1.59 0 0 0-.344-.578 1.308 1.308 0 0 0-.5-.336 1.67 1.67 0 0 0-.61-.11c-.479 0-.872.162-1.179.485-.308.318-.49.768-.547 1.351h3.297Zm8.554 4.852v-5.172c0-.87-.322-1.305-.968-1.305-.323 0-.633.131-.93.391-.292.26-.602.615-.93 1.063V378h-1.906v-7.938h1.649l.046 1.172c.162-.203.329-.388.5-.554.177-.167.368-.308.571-.422.203-.12.422-.211.656-.274.234-.062.497-.093.789-.093.406 0 .76.067 1.063.203.302.13.554.317.757.562.203.24.355.532.453.875.105.339.157.719.157 1.141V378h-1.907Zm10.61-.078c-.344.078-.69.14-1.039.187-.349.047-.68.071-.992.071-.521 0-.972-.055-1.352-.164a2.385 2.385 0 0 1-.937-.5 2.03 2.03 0 0 1-.547-.852c-.115-.349-.172-.763-.172-1.242v-3.875h-2.133v-1.485h2.133v-2.031l1.953-.508v2.539h3.086v1.485h-3.086v3.734c0 .453.104.797.312 1.031.209.23.558.344 1.047.344.313 0 .617-.026.914-.078.297-.052.568-.112.813-.18v1.524Zm7.226.078-.046-1.039a5.898 5.898 0 0 1-.524.492 3.358 3.358 0 0 1-.601.383 3.097 3.097 0 0 1-.719.25 3.575 3.575 0 0 1-.844.094 2.93 2.93 0 0 1-1.07-.18 2.157 2.157 0 0 1-.774-.5 2.13 2.13 0 0 1-.476-.773 3.062 3.062 0 0 1-.157-1c0-.375.079-.722.235-1.039.161-.318.403-.592.726-.821.329-.229.735-.409 1.219-.539.49-.13 1.063-.195 1.719-.195h1.039v-.477a1.64 1.64 0 0 0-.086-.547.97.97 0 0 0-.281-.421 1.257 1.257 0 0 0-.492-.266 2.572 2.572 0 0 0-.75-.094 5.99 5.99 0 0 0-1.391.164 7.003 7.003 0 0 0-1.32.446v-1.524a7.987 7.987 0 0 1 2.867-.523c.588 0 1.094.057 1.515.171.422.11.769.277 1.04.5.276.224.479.506.609.844.13.334.195.724.195 1.172V378h-1.633Zm-.273-3.508h-1.164c-.323 0-.596.031-.82.094a1.546 1.546 0 0 0-.547.258 1.034 1.034 0 0 0-.313.383c-.062.14-.094.291-.094.453 0 .323.105.57.313.742.208.167.492.25.852.25.265 0 .541-.096.828-.289a6.04 6.04 0 0 0 .945-.828v-1.063Zm10.641 3.43c-.344.078-.691.14-1.039.187-.349.047-.68.071-.993.071-.52 0-.971-.055-1.351-.164a2.389 2.389 0 0 1-.938-.5 2.04 2.04 0 0 1-.547-.852c-.114-.349-.171-.763-.171-1.242v-3.875h-2.133v-1.485h2.133v-2.031l1.953-.508v2.539h3.086v1.485h-3.086v3.734c0 .453.104.797.312 1.031.208.23.557.344 1.047.344.313 0 .617-.026.914-.078.297-.052.568-.112.813-.18v1.524Zm6.921-10.031a1.21 1.21 0 0 1-.359.882c-.109.11-.239.198-.391.266a1.265 1.265 0 0 1-.492.094c-.177 0-.343-.031-.5-.094a1.387 1.387 0 0 1-.398-.266 1.27 1.27 0 0 1-.352-.882 1.266 1.266 0 0 1 .352-.883 1.21 1.21 0 0 1 .398-.266c.157-.068.323-.101.5-.101s.341.033.492.101c.152.063.282.151.391.266a1.21 1.21 0 0 1 .359.883Zm-2.109 3.656h-2.242v-1.485h4.195v6.454h2.289V378h-6.758v-1.484h2.516v-4.969Zm13.383 2.422c0 .625-.089 1.198-.266 1.719a3.81 3.81 0 0 1-.765 1.328 3.41 3.41 0 0 1-1.227.859c-.484.203-1.036.305-1.656.305-.589 0-1.115-.086-1.578-.258a3.082 3.082 0 0 1-1.18-.766 3.452 3.452 0 0 1-.742-1.281c-.172-.516-.258-1.115-.258-1.797 0-.63.089-1.203.266-1.719a3.82 3.82 0 0 1 .773-1.32c.339-.365.75-.646 1.234-.844.485-.203 1.032-.304 1.641-.304.594 0 1.122.088 1.586.265.464.172.857.43 1.18.774.323.343.567.771.734 1.281.172.505.258 1.091.258 1.758Zm-1.984.047c0-.823-.157-1.44-.469-1.852-.308-.417-.763-.625-1.367-.625-.334 0-.618.065-.852.195-.234.131-.427.31-.578.539a2.412 2.412 0 0 0-.336.789 4.417 4.417 0 0 0-.102.969c0 .828.167 1.453.5 1.875.334.417.789.625 1.368.625.317 0 .593-.062.828-.187.234-.13.424-.308.57-.532.146-.229.255-.497.328-.804.073-.307.11-.638.11-.992Zm8.367 3.984v-5.172c0-.87-.323-1.305-.969-1.305-.323 0-.633.131-.93.391-.291.26-.601.615-.929 1.063V378h-1.907v-7.938h1.649l.047 1.172c.161-.203.328-.388.5-.554.177-.167.367-.308.57-.422.203-.12.422-.211.656-.274.235-.062.498-.093.789-.093.407 0 .761.067 1.063.203.302.13.554.317.758.562.203.24.354.532.453.875.104.339.156.719.156 1.141V378h-1.906Z" fill="#000"/><circle cx="247.5" cy="11.5" r="11.5" fill="#000"/><circle cx="246.5" cy="376.5" r="17.5" fill="#fff" stroke="#000" stroke-width="4"/><path d="M246.939 127.061a1.502 1.502 0 0 0 2.122 0l9.546-9.546a1.502 1.502 0 0 0 0-2.122 1.502 1.502 0 0 0-2.122 0L248 123.879l-8.485-8.486a1.502 1.502 0 0 0-2.122 0 1.502 1.502 0 0 0 0 2.122l9.546 9.546ZM246.5 23v103h3V23h-3Zm-1.561 321.061a1.502 1.502 0 0 0 2.122 0l9.546-9.546a1.502 1.502 0 0 0 0-2.122 1.502 1.502 0 0 0-2.122 0L246 340.879l-8.485-8.486a1.502 1.502 0 0 0-2.122 0 1.502 1.502 0 0 0 0 2.122l9.546 9.546ZM244.5 254v89h3v-89h-3Z" fill="#000"/><circle cx="246.5" cy="376.5" r="11.5" fill="#000"/><path d="M483.061 181.061a1.502 1.502 0 0 0 0-2.122l-9.546-9.546a1.502 1.502 0 0 0-2.122 0 1.502 1.502 0 0 0 0 2.122l8.486 8.485-8.486 8.485a1.502 1.502 0 0 0 0 2.122 1.502 1.502 0 0 0 2.122 0l9.546-9.546ZM333 181.5h149v-3H333v3Zm-1.061 27.439a1.502 1.502 0 0 0 0 2.122l9.546 9.546a1.502 1.502 0 0 0 2.122 0 1.502 1.502 0 0 0 0-2.122L335.121 210l8.486-8.485a1.502 1.502 0 0 0 0-2.122 1.502 1.502 0 0 0-2.122 0l-9.546 9.546ZM474 208.5H333v3h141v-3Zm-321.939 15.561a1.502 1.502 0 0 0 0-2.122l-9.546-9.546a1.502 1.502 0 0 0-2.122 0 1.502 1.502 0 0 0 0 2.122l8.486 8.485-8.486 8.485a1.502 1.502 0 0 0 0 2.122 1.502 1.502 0 0 0 2.122 0l9.546-9.546ZM27 224.5h124v-3H27v3Zm243.939 140.439a1.502 1.502 0 0 0 0 2.122l9.546 9.546a1.502 1.502 0 0 0 2.122 0 1.502 1.502 0 0 0 0-2.122L274.121 366l8.486-8.485a1.502 1.502 0 0 0 0-2.122 1.502 1.502 0 0 0-2.122 0l-9.546 9.546ZM462 364.5H272v3h190v-3Zm12.281-20.027a1.499 1.499 0 0 0 1.192-1.754l-2.532-13.261a1.5 1.5 0 1 0-2.947.563l2.251 11.787-11.787 2.251a1.5 1.5 0 1 0 .563 2.947l13.26-2.533ZM314.157 236.241l159 108 1.686-2.482-159-108-1.686 2.482Zm-36.54-167.546a5.957 5.957 0 0 1-1.164.336c-.401.073-.82.11-1.258.11-.63 0-1.195-.086-1.695-.258a3.374 3.374 0 0 1-1.273-.766 3.367 3.367 0 0 1-.805-1.258c-.182-.5-.274-1.078-.274-1.734 0-.635.099-1.21.297-1.727.203-.515.487-.955.852-1.32a3.74 3.74 0 0 1 1.312-.844 4.766 4.766 0 0 1 1.719-.297c.516 0 .948.03 1.297.086.354.052.672.12.953.204v1.851a4.762 4.762 0 0 0-1.055-.375 4.658 4.658 0 0 0-1.07-.133c-.354 0-.672.06-.953.18-.281.12-.518.286-.711.5a2.199 2.199 0 0 0-.445.781 3.197 3.197 0 0 0-.149 1c0 .38.055.722.164 1.024.11.302.263.56.461.773.203.209.446.37.727.484.281.11.594.165.937.165.167 0 .342-.01.524-.032.187-.026.372-.06.554-.101.188-.047.37-.1.547-.156.183-.058.352-.12.508-.188v1.695Zm7.485-4.547a3.39 3.39 0 0 0-.047-.757 1.367 1.367 0 0 0-.188-.516.77.77 0 0 0-.312-.297.95.95 0 0 0-.43-.094c-.281 0-.573.118-.875.352-.297.23-.625.61-.984 1.14V69h-1.954v-7.938h1.727l.07 1.157a3.26 3.26 0 0 1 .438-.547c.167-.162.349-.3.547-.414a2.57 2.57 0 0 1 .672-.274c.244-.062.513-.093.804-.093.401 0 .756.07 1.063.21.312.136.573.34.781.61.214.27.37.612.469 1.023.104.407.148.878.133 1.414h-1.914Zm10.601.274c0 .13-.005.3-.015.508-.006.208-.016.403-.032.586h-5.218c0 .349.052.656.156.921.109.266.26.49.453.672.198.178.432.313.703.407.276.093.581.14.914.14.385 0 .797-.028 1.234-.086.443-.062.901-.161 1.375-.297v1.516c-.203.057-.424.11-.664.156a15.15 15.15 0 0 1-.734.125 9.09 9.09 0 0 1-.758.078 9.08 9.08 0 0 1-.742.032 4.792 4.792 0 0 1-1.625-.258 3.254 3.254 0 0 1-1.219-.758 3.374 3.374 0 0 1-.765-1.25c-.177-.495-.266-1.068-.266-1.719 0-.645.089-1.231.266-1.757.177-.532.427-.985.75-1.36.323-.38.713-.672 1.172-.875a3.728 3.728 0 0 1 1.546-.312c.563 0 1.06.088 1.493.265.432.172.794.414 1.085.727.292.312.514.685.665 1.117.151.432.226.906.226 1.422Zm-1.937-.274a2.256 2.256 0 0 0-.118-.812 1.574 1.574 0 0 0-.343-.578 1.314 1.314 0 0 0-.5-.336 1.671 1.671 0 0 0-.61-.11c-.479 0-.872.162-1.179.485-.308.318-.49.768-.547 1.351h3.297ZM302.562 69l-.046-1.04a5.886 5.886 0 0 1-.524.493 3.38 3.38 0 0 1-.601.383c-.219.11-.459.193-.719.25a3.55 3.55 0 0 1-.844.094 2.93 2.93 0 0 1-1.07-.18 2.17 2.17 0 0 1-.774-.5 2.127 2.127 0 0 1-.476-.773 3.056 3.056 0 0 1-.156-1c0-.375.078-.722.234-1.04.161-.317.404-.59.726-.82.329-.229.735-.409 1.219-.539.49-.13 1.063-.195 1.719-.195h1.039v-.477a1.64 1.64 0 0 0-.086-.547.972.972 0 0 0-.281-.422 1.268 1.268 0 0 0-.492-.265 2.58 2.58 0 0 0-.75-.094 5.99 5.99 0 0 0-1.391.164 7.036 7.036 0 0 0-1.32.446v-1.524a7.6 7.6 0 0 1 1.312-.375 7.986 7.986 0 0 1 1.555-.148c.588 0 1.094.057 1.516.172.421.109.768.276 1.039.5.276.223.479.505.609.843.13.334.195.724.195 1.172V69h-1.633Zm-.273-3.508h-1.164c-.323 0-.596.031-.82.094a1.565 1.565 0 0 0-.547.258c-.141.11-.245.237-.313.383a1.11 1.11 0 0 0-.093.453c0 .323.104.57.312.742.208.166.492.25.852.25.265 0 .541-.096.828-.29.286-.192.601-.468.945-.827v-1.063Zm10.641 3.43c-.344.078-.69.14-1.039.187a7.45 7.45 0 0 1-.993.07c-.52 0-.971-.054-1.351-.163a2.381 2.381 0 0 1-.938-.5 2.05 2.05 0 0 1-.547-.852c-.114-.349-.171-.763-.171-1.242v-3.875h-2.133v-1.484h2.133V59.03l1.953-.508v2.54h3.086v1.484h-3.086v3.734c0 .453.104.797.312 1.031.209.23.558.344 1.047.344.313 0 .617-.026.914-.078.297-.052.568-.112.813-.18v1.524Zm9.164-4.5c0 .13-.005.3-.016.508-.005.208-.016.403-.031.586h-5.219c0 .349.052.656.156.921.11.266.261.49.454.672.197.178.432.313.703.407.276.093.58.14.914.14.385 0 .797-.028 1.234-.086.443-.062.901-.161 1.375-.297v1.516c-.203.057-.424.11-.664.156-.24.047-.484.089-.734.125a9.09 9.09 0 0 1-.758.078 9.1 9.1 0 0 1-.742.032 4.788 4.788 0 0 1-1.625-.258 3.238 3.238 0 0 1-1.219-.758 3.376 3.376 0 0 1-.766-1.25c-.177-.495-.265-1.068-.265-1.719 0-.645.088-1.231.265-1.757.177-.532.427-.985.75-1.36.323-.38.714-.672 1.172-.875a3.733 3.733 0 0 1 1.547-.312c.563 0 1.06.088 1.492.265.432.172.794.414 1.086.727.292.312.513.685.664 1.117.151.432.227.906.227 1.422Zm-1.938-.274a2.279 2.279 0 0 0-.117-.812 1.575 1.575 0 0 0-.344-.578 1.3 1.3 0 0 0-.5-.336 1.662 1.662 0 0 0-.609-.11c-.479 0-.872.162-1.18.485-.307.318-.489.768-.547 1.351h3.297Zm83.485 88.516c0 .453-.102.841-.305 1.164a2.383 2.383 0 0 1-.797.781 3.57 3.57 0 0 1-1.125.43 5.807 5.807 0 0 1-1.281.141c-.584 0-1.11-.029-1.578-.086a9.876 9.876 0 0 1-1.328-.235v-1.718c.489.203.976.351 1.461.445.489.088.95.133 1.382.133.5 0 .873-.078 1.118-.235.25-.161.374-.369.374-.625a.696.696 0 0 0-.078-.328.783.783 0 0 0-.296-.281 2.839 2.839 0 0 0-.602-.281c-.26-.099-.602-.209-1.024-.328a7.155 7.155 0 0 1-1.031-.368 2.703 2.703 0 0 1-.726-.492 1.868 1.868 0 0 1-.438-.648 2.483 2.483 0 0 1-.14-.875c0-.323.072-.628.218-.914.146-.287.362-.537.649-.75a3.322 3.322 0 0 1 1.086-.516c.432-.125.937-.187 1.515-.187.5 0 .943.026 1.328.078.386.052.727.109 1.024.172v1.554a7.748 7.748 0 0 0-1.281-.304 7.496 7.496 0 0 0-1.18-.094c-.391 0-.706.07-.945.211-.235.14-.352.336-.352.586 0 .12.023.226.07.32a.756.756 0 0 0 .274.274c.14.088.333.182.578.281.25.093.578.198.984.312.459.13.844.271 1.157.422.312.146.562.313.75.5.192.188.33.401.414.641.083.239.125.513.125.82Zm8.797 2.258c-.344.078-.691.14-1.04.187a7.443 7.443 0 0 1-.992.071 4.93 4.93 0 0 1-1.351-.164 2.389 2.389 0 0 1-.938-.5 2.04 2.04 0 0 1-.547-.852 4.014 4.014 0 0 1-.172-1.242v-3.875h-2.132v-1.485h2.132v-2.031l1.954-.508v2.539h3.086v1.485h-3.086v3.734c0 .453.104.797.312 1.031.208.23.557.344 1.047.344.312 0 .617-.026.914-.078.297-.052.568-.112.813-.18v1.524Zm9.398-3.953c0 .625-.089 1.198-.266 1.719a3.81 3.81 0 0 1-.765 1.328 3.41 3.41 0 0 1-1.227.859c-.484.203-1.036.305-1.656.305-.589 0-1.115-.086-1.578-.258a3.082 3.082 0 0 1-1.18-.766 3.452 3.452 0 0 1-.742-1.281c-.172-.516-.258-1.115-.258-1.797 0-.63.089-1.203.266-1.719a3.82 3.82 0 0 1 .773-1.32c.339-.365.75-.646 1.235-.844.484-.203 1.031-.304 1.64-.304.594 0 1.123.088 1.586.265.464.172.857.43 1.18.774.323.343.567.771.734 1.281.172.505.258 1.091.258 1.758Zm-1.984.047c0-.823-.157-1.44-.469-1.852-.307-.417-.763-.625-1.367-.625-.334 0-.618.065-.852.195-.234.131-.427.31-.578.539a2.412 2.412 0 0 0-.336.789 4.417 4.417 0 0 0-.102.969c0 .828.167 1.453.5 1.875.334.417.79.625 1.368.625.317 0 .593-.062.828-.187.234-.13.424-.308.57-.532.146-.229.255-.497.328-.804.073-.307.11-.638.11-.992Zm8.742-.868a3.33 3.33 0 0 0-.047-.757 1.362 1.362 0 0 0-.188-.516.777.777 0 0 0-.312-.297.955.955 0 0 0-.43-.094c-.281 0-.573.118-.875.352-.297.229-.625.609-.984 1.141V155h-1.953v-7.938h1.726l.071 1.157a2.764 2.764 0 0 1 .984-.961 2.57 2.57 0 0 1 .672-.274c.245-.062.513-.093.804-.093.402 0 .756.07 1.063.211.313.135.573.338.781.609.214.271.37.612.469 1.023.104.407.148.878.133 1.414h-1.914Zm10.601.274c0 .13-.005.299-.015.508-.006.208-.016.403-.032.586h-5.218c0 .349.052.656.156.922.109.265.26.489.453.671.198.177.432.313.703.407.276.093.581.14.914.14.386 0 .797-.028 1.235-.086.442-.062.901-.161 1.375-.297v1.516a8.734 8.734 0 0 1-.664.156 14.8 14.8 0 0 1-.735.125c-.25.037-.502.063-.758.078a9.044 9.044 0 0 1-.742.032 4.79 4.79 0 0 1-1.625-.258 3.259 3.259 0 0 1-1.219-.758 3.368 3.368 0 0 1-.765-1.25c-.177-.495-.266-1.068-.266-1.719 0-.646.089-1.231.266-1.757.177-.532.427-.985.75-1.36.323-.38.713-.672 1.172-.875a3.734 3.734 0 0 1 1.547-.312c.562 0 1.059.088 1.492.265.432.172.794.414 1.086.727.291.312.513.685.664 1.117.151.432.226.906.226 1.422Zm-1.937-.274a2.277 2.277 0 0 0-.117-.812 1.59 1.59 0 0 0-.344-.578 1.308 1.308 0 0 0-.5-.336 1.668 1.668 0 0 0-.609-.11c-.48 0-.873.162-1.18.485-.307.318-.49.768-.547 1.351h3.297ZM426.273 289l-.046-1.039a5.898 5.898 0 0 1-.524.492 3.358 3.358 0 0 1-.601.383 3.097 3.097 0 0 1-.719.25 3.575 3.575 0 0 1-.844.094 2.93 2.93 0 0 1-1.07-.18 2.157 2.157 0 0 1-.774-.5 2.13 2.13 0 0 1-.476-.773 3.062 3.062 0 0 1-.157-1c0-.375.079-.722.235-1.039.161-.318.404-.592.726-.821.329-.229.735-.409 1.219-.539.49-.13 1.063-.195 1.719-.195H426v-.477a1.64 1.64 0 0 0-.086-.547.97.97 0 0 0-.281-.421 1.257 1.257 0 0 0-.492-.266 2.562 2.562 0 0 0-.75-.094 5.99 5.99 0 0 0-1.391.164 7.003 7.003 0 0 0-1.32.446v-1.524a7.987 7.987 0 0 1 2.867-.523c.588 0 1.094.057 1.515.171.422.11.769.277 1.04.5.276.224.479.506.609.844.13.334.195.724.195 1.172V289h-1.633Zm-.273-3.508h-1.164c-.323 0-.596.031-.82.094a1.546 1.546 0 0 0-.547.258 1.034 1.034 0 0 0-.313.383c-.062.14-.094.291-.094.453 0 .323.105.57.313.742.208.167.492.25.852.25.265 0 .541-.096.828-.289a6.04 6.04 0 0 0 .945-.828v-1.063Zm9.203-1.344a3.274 3.274 0 0 0-.047-.757 1.362 1.362 0 0 0-.187-.516.786.786 0 0 0-.313-.297.953.953 0 0 0-.429-.094c-.282 0-.573.118-.875.352-.297.229-.625.609-.985 1.141V289h-1.953v-7.938h1.727l.07 1.157a2.764 2.764 0 0 1 .984-.961 2.57 2.57 0 0 1 .672-.274c.245-.062.513-.093.805-.093.401 0 .755.07 1.062.211.313.135.573.338.782.609.213.271.369.612.468 1.023.105.407.149.878.133 1.414h-1.914Zm10.109 4.547a5.951 5.951 0 0 1-1.164.336c-.401.073-.82.11-1.257.11-.631 0-1.196-.086-1.696-.258a3.37 3.37 0 0 1-1.273-.766 3.375 3.375 0 0 1-.805-1.258c-.182-.5-.273-1.078-.273-1.734 0-.635.099-1.211.297-1.727.203-.515.487-.955.851-1.32a3.755 3.755 0 0 1 1.313-.844 4.754 4.754 0 0 1 1.718-.296c.516 0 .948.028 1.297.085.354.053.672.12.953.204v1.851a4.794 4.794 0 0 0-1.054-.375 4.694 4.694 0 0 0-1.071-.133c-.354 0-.671.06-.953.18-.281.12-.518.286-.711.5a2.22 2.22 0 0 0-.445.781 3.2 3.2 0 0 0-.148 1c0 .38.054.722.164 1.024.109.302.263.56.461.773.203.208.445.37.726.484.281.11.594.165.938.165.166 0 .341-.011.523-.032.188-.026.373-.06.555-.101.187-.047.37-.099.547-.156.182-.058.351-.12.507-.188v1.695Zm7.11.305v-5.172c0-.87-.323-1.305-.969-1.305-.323 0-.633.131-.93.391-.291.26-.601.615-.929 1.063V289h-1.906v-11.039h1.906v2.719l-.094 1.437c.161-.193.326-.364.492-.515a2.503 2.503 0 0 1 1.164-.625c.224-.058.472-.086.742-.086.407 0 .761.067 1.063.203.302.13.555.317.758.562.203.24.354.532.453.875.104.339.156.719.156 1.141V289h-1.906Zm8.734-10.109a1.246 1.246 0 0 1-.359.882c-.109.11-.24.198-.391.266a1.265 1.265 0 0 1-.492.094c-.177 0-.344-.031-.5-.094a1.387 1.387 0 0 1-.398-.266 1.253 1.253 0 0 1-.258-.398 1.246 1.246 0 0 1-.094-.484c0-.172.031-.334.094-.485.062-.151.148-.284.258-.398a1.21 1.21 0 0 1 .398-.266c.156-.068.323-.101.5-.101s.341.033.492.101c.151.063.282.151.391.266a1.248 1.248 0 0 1 .359.883Zm-2.109 3.656h-2.242v-1.485H461v6.454h2.289V289h-6.758v-1.484h2.516v-4.969ZM469.719 289h-2.196l-3.148-7.938h2.125l1.648 4.5.493 1.454.484-1.391 1.664-4.563h2.047L469.719 289Zm11.273-4.578c0 .13-.005.299-.015.508-.006.208-.016.403-.032.586h-5.218c0 .349.052.656.156.922.109.265.26.489.453.671.198.177.432.313.703.407.276.093.581.14.914.14.386 0 .797-.028 1.235-.086a10.02 10.02 0 0 0 1.374-.297v1.516a8.514 8.514 0 0 1-.664.156c-.239.047-.484.089-.734.125-.25.037-.503.063-.758.078a9.044 9.044 0 0 1-.742.032 4.79 4.79 0 0 1-1.625-.258 3.259 3.259 0 0 1-1.219-.758 3.368 3.368 0 0 1-.765-1.25c-.177-.495-.266-1.068-.266-1.719 0-.646.089-1.231.266-1.757.177-.532.427-.985.75-1.36.323-.38.713-.672 1.172-.875a3.733 3.733 0 0 1 1.546-.312c.563 0 1.06.088 1.493.265.432.172.794.414 1.086.727.291.312.513.685.664 1.117.151.432.226.906.226 1.422Zm-1.937-.274a2.277 2.277 0 0 0-.117-.812 1.59 1.59 0 0 0-.344-.578 1.316 1.316 0 0 0-.5-.336 1.67 1.67 0 0 0-.61-.11c-.479 0-.872.162-1.179.485-.308.318-.49.768-.547 1.351h3.297ZM357.188 401l-.047-1.172a6.017 6.017 0 0 1-.516.555 3.2 3.2 0 0 1-.57.429 2.75 2.75 0 0 1-.657.266 2.682 2.682 0 0 1-.765.102c-.469 0-.886-.094-1.25-.282a2.595 2.595 0 0 1-.922-.796 3.936 3.936 0 0 1-.563-1.266 6.52 6.52 0 0 1-.195-1.656c0-.729.102-1.36.305-1.891.208-.536.495-.979.859-1.328a3.355 3.355 0 0 1 1.297-.781 4.988 4.988 0 0 1 2.227-.219c.203.026.382.06.539.101v-3.101h1.906V401h-1.648Zm-3.485-3.906c0 .437.029.812.086 1.125.063.307.151.56.266.758.119.197.265.343.437.437.172.089.367.133.586.133.323 0 .63-.13.922-.391.292-.26.602-.617.93-1.07v-3.469a3.976 3.976 0 0 0-1.227-.195c-.307 0-.583.062-.828.187a1.859 1.859 0 0 0-.633.532c-.172.229-.304.51-.398.843a4.03 4.03 0 0 0-.141 1.11Zm14.203-.672c0 .13-.005.299-.015.508-.006.208-.016.403-.032.586h-5.218c0 .349.052.656.156.922.109.265.26.489.453.671.198.177.432.313.703.407.276.093.581.14.914.14.386 0 .797-.028 1.235-.086.442-.062.901-.161 1.375-.297v1.516a8.653 8.653 0 0 1-.665.156c-.239.047-.484.089-.734.125-.25.037-.502.063-.758.078a9.044 9.044 0 0 1-.742.032 4.79 4.79 0 0 1-1.625-.258 3.259 3.259 0 0 1-1.219-.758 3.368 3.368 0 0 1-.765-1.25c-.177-.495-.266-1.068-.266-1.719 0-.646.089-1.231.266-1.757.177-.532.427-.985.75-1.36.323-.38.713-.672 1.172-.875a3.734 3.734 0 0 1 1.547-.312c.562 0 1.059.088 1.492.265.432.172.794.414 1.086.727.291.312.513.685.664 1.117.151.432.226.906.226 1.422Zm-1.937-.274a2.277 2.277 0 0 0-.117-.812 1.59 1.59 0 0 0-.344-.578 1.308 1.308 0 0 0-.5-.336 1.67 1.67 0 0 0-.61-.11c-.479 0-.872.162-1.179.485-.308.318-.49.768-.547 1.351h3.297Zm6.383-4.703h-2.243v-1.484h4.196v9.555h2.289V401h-6.758v-1.484h2.516v-8.071Zm13.148 4.977c0 .13-.005.299-.016.508a9.321 9.321 0 0 1-.031.586h-5.219c0 .349.052.656.157.922.109.265.26.489.453.671.198.177.432.313.703.407.276.093.581.14.914.14.385 0 .797-.028 1.234-.086.443-.062.901-.161 1.375-.297v1.516a8.514 8.514 0 0 1-.664.156c-.239.047-.484.089-.734.125-.25.037-.503.063-.758.078a9.062 9.062 0 0 1-.742.032 4.79 4.79 0 0 1-1.625-.258 3.251 3.251 0 0 1-1.219-.758 3.383 3.383 0 0 1-.766-1.25c-.177-.495-.265-1.068-.265-1.719 0-.646.088-1.231.265-1.757.178-.532.428-.985.75-1.36.323-.38.714-.672 1.172-.875.464-.208.98-.312 1.547-.312.563 0 1.06.088 1.492.265.433.172.795.414 1.086.727.292.312.513.685.664 1.117.151.432.227.906.227 1.422Zm-1.938-.274a2.233 2.233 0 0 0-.117-.812 1.589 1.589 0 0 0-.343-.578 1.316 1.316 0 0 0-.5-.336 1.67 1.67 0 0 0-.61-.11c-.479 0-.872.162-1.18.485-.307.318-.489.768-.546 1.351h3.296Zm10.368 4.774c-.344.078-.69.14-1.039.187-.349.047-.68.071-.993.071-.52 0-.971-.055-1.351-.164a2.389 2.389 0 0 1-.938-.5 2.05 2.05 0 0 1-.547-.852c-.114-.349-.171-.763-.171-1.242v-3.875h-2.133v-1.485h2.133v-2.031l1.953-.508v2.539h3.086v1.485h-3.086v3.734c0 .453.104.797.312 1.031.209.23.558.344 1.047.344.313 0 .617-.026.914-.078.297-.052.568-.112.813-.18v1.524Zm9.164-4.5c0 .13-.005.299-.016.508-.005.208-.016.403-.031.586h-5.219c0 .349.052.656.156.922.11.265.261.489.454.671.197.177.432.313.703.407.276.093.58.14.914.14.385 0 .797-.028 1.234-.086.443-.062.901-.161 1.375-.297v1.516a8.514 8.514 0 0 1-.664.156c-.24.047-.484.089-.734.125-.25.037-.503.063-.758.078a9.062 9.062 0 0 1-.742.032 4.785 4.785 0 0 1-1.625-.258 3.243 3.243 0 0 1-1.219-.758 3.37 3.37 0 0 1-.766-1.25c-.177-.495-.265-1.068-.265-1.719 0-.646.088-1.231.265-1.757.177-.532.427-.985.75-1.36.323-.38.714-.672 1.172-.875a3.738 3.738 0 0 1 1.547-.312c.563 0 1.06.088 1.492.265.432.172.794.414 1.086.727.292.312.513.685.664 1.117.151.432.227.906.227 1.422Zm-1.938-.274a2.277 2.277 0 0 0-.117-.812 1.577 1.577 0 0 0-.344-.578 1.3 1.3 0 0 0-.5-.336 1.66 1.66 0 0 0-.609-.11c-.479 0-.872.162-1.18.485-.307.318-.489.768-.547 1.351h3.297ZM183.188 302l-.047-1.172a6.017 6.017 0 0 1-.516.555 3.2 3.2 0 0 1-.57.429 2.75 2.75 0 0 1-.657.266 2.682 2.682 0 0 1-.765.102c-.469 0-.886-.094-1.25-.282a2.595 2.595 0 0 1-.922-.796 3.936 3.936 0 0 1-.563-1.266 6.52 6.52 0 0 1-.195-1.656c0-.729.102-1.36.305-1.891.208-.536.495-.979.859-1.328a3.355 3.355 0 0 1 1.297-.781 4.988 4.988 0 0 1 2.227-.219c.203.026.382.06.539.101v-3.101h1.906V302h-1.648Zm-3.485-3.906c0 .437.029.812.086 1.125.063.307.151.56.266.758.119.197.265.343.437.437.172.089.367.133.586.133.323 0 .63-.13.922-.391.292-.26.602-.617.93-1.07v-3.469a3.976 3.976 0 0 0-1.227-.195c-.307 0-.583.062-.828.187a1.859 1.859 0 0 0-.633.532c-.172.229-.304.51-.398.843a4.03 4.03 0 0 0-.141 1.11Zm14.203-.672c0 .13-.005.299-.015.508-.006.208-.016.403-.032.586h-5.218c0 .349.052.656.156.922.109.265.26.489.453.671.198.177.432.313.703.407.276.093.581.14.914.14.386 0 .797-.028 1.235-.086.442-.062.901-.161 1.375-.297v1.516a8.653 8.653 0 0 1-.665.156c-.239.047-.484.089-.734.125-.25.037-.502.063-.758.078a9.044 9.044 0 0 1-.742.032 4.79 4.79 0 0 1-1.625-.258 3.259 3.259 0 0 1-1.219-.758 3.368 3.368 0 0 1-.765-1.25c-.177-.495-.266-1.068-.266-1.719 0-.646.089-1.231.266-1.757.177-.532.427-.985.75-1.36.323-.38.713-.672 1.172-.875a3.734 3.734 0 0 1 1.547-.312c.562 0 1.059.088 1.492.265.432.172.794.414 1.086.727.291.312.513.685.664 1.117.151.432.226.906.226 1.422Zm-1.937-.274a2.277 2.277 0 0 0-.117-.812 1.59 1.59 0 0 0-.344-.578 1.308 1.308 0 0 0-.5-.336 1.67 1.67 0 0 0-.61-.11c-.479 0-.872.162-1.179.485-.308.318-.49.768-.547 1.351h3.297Zm6.383-4.703h-2.243v-1.484h4.196v9.555h2.289V302h-6.758v-1.484h2.516v-8.071Zm13.148 4.977c0 .13-.005.299-.016.508a9.321 9.321 0 0 1-.031.586h-5.219c0 .349.052.656.157.922.109.265.26.489.453.671.198.177.432.313.703.407.276.093.581.14.914.14.385 0 .797-.028 1.234-.086.443-.062.901-.161 1.375-.297v1.516a8.514 8.514 0 0 1-.664.156c-.239.047-.484.089-.734.125-.25.037-.503.063-.758.078a9.062 9.062 0 0 1-.742.032 4.79 4.79 0 0 1-1.625-.258 3.251 3.251 0 0 1-1.219-.758 3.383 3.383 0 0 1-.766-1.25c-.177-.495-.265-1.068-.265-1.719 0-.646.088-1.231.265-1.757.178-.532.428-.985.75-1.36.323-.38.714-.672 1.172-.875.464-.208.98-.312 1.547-.312.563 0 1.06.088 1.492.265.433.172.795.414 1.086.727.292.312.513.685.664 1.117.151.432.227.906.227 1.422Zm-1.938-.274a2.233 2.233 0 0 0-.117-.812 1.589 1.589 0 0 0-.343-.578 1.316 1.316 0 0 0-.5-.336 1.67 1.67 0 0 0-.61-.11c-.479 0-.872.162-1.18.485-.307.318-.489.768-.546 1.351h3.296Zm10.368 4.774c-.344.078-.69.14-1.039.187-.349.047-.68.071-.993.071-.52 0-.971-.055-1.351-.164a2.389 2.389 0 0 1-.938-.5 2.05 2.05 0 0 1-.547-.852c-.114-.349-.171-.763-.171-1.242v-3.875h-2.133v-1.485h2.133v-2.031l1.953-.508v2.539h3.086v1.485h-3.086v3.734c0 .453.104.797.312 1.031.209.23.558.344 1.047.344.313 0 .617-.026.914-.078.297-.052.568-.112.813-.18v1.524Zm9.164-4.5c0 .13-.005.299-.016.508-.005.208-.016.403-.031.586h-5.219c0 .349.052.656.156.922.11.265.261.489.454.671.197.177.432.313.703.407.276.093.58.14.914.14.385 0 .797-.028 1.234-.086.443-.062.901-.161 1.375-.297v1.516a8.514 8.514 0 0 1-.664.156c-.24.047-.484.089-.734.125-.25.037-.503.063-.758.078a9.062 9.062 0 0 1-.742.032 4.785 4.785 0 0 1-1.625-.258 3.243 3.243 0 0 1-1.219-.758 3.37 3.37 0 0 1-.766-1.25c-.177-.495-.265-1.068-.265-1.719 0-.646.088-1.231.265-1.757.177-.532.427-.985.75-1.36.323-.38.714-.672 1.172-.875a3.738 3.738 0 0 1 1.547-.312c.563 0 1.06.088 1.492.265.432.172.794.414 1.086.727.292.312.513.685.664 1.117.151.432.227.906.227 1.422Zm-1.938-.274a2.277 2.277 0 0 0-.117-.812 1.577 1.577 0 0 0-.344-.578 1.3 1.3 0 0 0-.5-.336 1.66 1.66 0 0 0-.609-.11c-.479 0-.872.162-1.18.485-.307.318-.489.768-.547 1.351h3.297ZM6.797 198v-5.406c0-.198-.005-.37-.016-.516a1.647 1.647 0 0 0-.062-.375.423.423 0 0 0-.14-.219.348.348 0 0 0-.243-.078c-.162 0-.32.11-.477.328-.156.219-.333.592-.53 1.118V198H3.694v-5.406c0-.198-.005-.37-.015-.516a1.647 1.647 0 0 0-.063-.375.423.423 0 0 0-.14-.219.378.378 0 0 0-.25-.078c-.136 0-.287.11-.454.328-.166.219-.351.592-.554 1.118V198H.57v-7.938h1.414l.032 1.157a4.74 4.74 0 0 1 .343-.602c.115-.166.237-.302.368-.406.13-.109.268-.188.414-.234.15-.047.32-.071.507-.071.443 0 .78.117 1.008.352.235.229.367.549.399.961.125-.235.247-.435.367-.602.125-.166.252-.302.383-.406a1.27 1.27 0 0 1 .43-.234c.156-.047.327-.071.515-.071.578 0 1.005.203 1.281.61.276.401.414.997.414 1.789V198H6.797Zm10.344-4.031c0 .625-.089 1.198-.266 1.719a3.807 3.807 0 0 1-.766 1.328 3.4 3.4 0 0 1-1.226.859c-.485.203-1.037.305-1.656.305-.589 0-1.115-.086-1.579-.258a3.084 3.084 0 0 1-1.18-.766 3.45 3.45 0 0 1-.741-1.281c-.172-.516-.258-1.115-.258-1.797 0-.63.088-1.203.265-1.719.183-.515.44-.955.774-1.32.338-.365.75-.646 1.234-.844.485-.203 1.031-.304 1.64-.304.595 0 1.123.088 1.587.265.463.172.857.43 1.18.774.322.343.567.771.734 1.281.172.505.258 1.091.258 1.758Zm-1.985.047c0-.823-.156-1.44-.469-1.852-.307-.417-.762-.625-1.367-.625-.333 0-.617.065-.851.195-.235.131-.427.31-.578.539a2.41 2.41 0 0 0-.336.789 4.436 4.436 0 0 0-.102.969c0 .828.167 1.453.5 1.875.334.417.79.625 1.367.625.318 0 .594-.062.828-.187.235-.13.425-.308.57-.532a2.58 2.58 0 0 0 .329-.804c.073-.307.11-.638.11-.992ZM23.781 198l-.047-1.172a5.973 5.973 0 0 1-.515.555 3.2 3.2 0 0 1-.57.429 2.756 2.756 0 0 1-.657.266 2.682 2.682 0 0 1-.765.102c-.47 0-.886-.094-1.25-.282a2.599 2.599 0 0 1-.922-.796 3.923 3.923 0 0 1-.563-1.266 6.511 6.511 0 0 1-.195-1.656c0-.729.101-1.36.305-1.891.208-.536.494-.979.859-1.328a3.352 3.352 0 0 1 1.297-.781 4.99 4.99 0 0 1 2.226-.219c.203.026.383.06.54.101v-3.101h1.906V198h-1.65Zm-3.484-3.906c0 .437.029.812.086 1.125.062.307.15.56.265.758.12.197.266.343.438.437.172.089.367.133.586.133.323 0 .63-.13.922-.391.291-.26.601-.617.93-1.07v-3.469a2.933 2.933 0 0 0-.563-.14 3.974 3.974 0 0 0-.664-.055c-.307 0-.584.062-.828.187a1.861 1.861 0 0 0-.633.532c-.172.229-.305.51-.398.843a4.03 4.03 0 0 0-.141 1.11Zm11.96-6.203c0 .171-.03.333-.093.484a1.207 1.207 0 0 1-.266.398c-.109.11-.24.198-.39.266a1.265 1.265 0 0 1-.492.094c-.177 0-.344-.031-.5-.094a1.397 1.397 0 0 1-.399-.266 1.271 1.271 0 0 1-.351-.882 1.257 1.257 0 0 1 .351-.883c.115-.115.248-.203.399-.266.156-.068.323-.101.5-.101s.34.033.492.101c.15.063.281.151.39.266.115.114.204.247.266.398.063.151.094.313.094.485Zm-2.109 3.656h-2.242v-1.485h4.196v6.454h2.289V198h-6.758v-1.484h2.515v-4.969Zm13.36-2.969a5.28 5.28 0 0 0-.82-.18 5.845 5.845 0 0 0-.961-.078 2.03 2.03 0 0 0-.625.094 1.24 1.24 0 0 0-.5.281 1.385 1.385 0 0 0-.336.5c-.078.198-.118.44-.118.727v1.281h3.118v1.485h-3.118V198h-1.921v-5.312h-2.305v-1.485h2.305V190c0-.562.08-1.044.242-1.445a2.56 2.56 0 0 1 .695-.993c.302-.26.664-.45 1.086-.57.422-.12.893-.18 1.414-.18.344 0 .67.024.977.071.312.041.601.094.867.156v1.539Zm6.445 8.555a13.678 13.678 0 0 1-.867 1.805 5.66 5.66 0 0 1-.984 1.296c-.36.349-.76.61-1.204.782-.437.177-.93.265-1.476.265a4.54 4.54 0 0 1-.43-.023 5.427 5.427 0 0 1-.469-.055v-1.617c.063.01.133.021.211.031.084.016.17.026.258.031a3.968 3.968 0 0 0 .524.032c.218 0 .422-.042.609-.125.188-.084.36-.201.516-.352.161-.146.307-.323.437-.531.13-.203.245-.427.344-.672l-3.149-7.938h2.125l1.649 4.5.492 1.454.484-1.391 1.664-4.563h2.047l-2.78 7.071Zm319.461 33.015a3.33 3.33 0 0 0-.047-.757 1.362 1.362 0 0 0-.187-.516.786.786 0 0 0-.313-.297.953.953 0 0 0-.429-.094c-.282 0-.573.118-.876.352-.296.229-.624.609-.984 1.141V235h-1.953v-7.938h1.727l.07 1.157a2.764 2.764 0 0 1 .984-.961 2.57 2.57 0 0 1 .672-.274c.245-.062.513-.093.805-.093.401 0 .755.07 1.062.211.313.135.573.338.782.609.213.271.369.612.468 1.023.104.407.149.878.133 1.414h-1.914Zm10.602.274c0 .13-.006.299-.016.508-.005.208-.016.403-.031.586h-5.219c0 .349.052.656.156.922.11.265.261.489.453.671.198.177.433.313.703.407.277.093.581.14.915.14.385 0 .796-.028 1.234-.086.443-.062.901-.161 1.375-.297v1.516a8.623 8.623 0 0 1-.664.156c-.24.047-.484.089-.734.125-.25.037-.503.063-.758.078a9.081 9.081 0 0 1-.742.032 4.795 4.795 0 0 1-1.626-.258 3.247 3.247 0 0 1-1.218-.758 3.357 3.357 0 0 1-.766-1.25c-.177-.495-.266-1.068-.266-1.719 0-.646.089-1.231.266-1.757.177-.532.427-.985.75-1.36.323-.38.714-.672 1.172-.875a3.738 3.738 0 0 1 1.547-.312c.562 0 1.06.088 1.492.265.432.172.794.414 1.086.727.292.312.513.685.664 1.117.151.432.227.906.227 1.422Zm-1.938-.274a2.277 2.277 0 0 0-.117-.812 1.577 1.577 0 0 0-.344-.578 1.3 1.3 0 0 0-.5-.336 1.66 1.66 0 0 0-.609-.11c-.479 0-.873.162-1.18.485-.307.318-.489.768-.547 1.351h3.297Zm10.242 4.547a5.971 5.971 0 0 1-1.164.336c-.401.073-.82.11-1.258.11-.63 0-1.195-.086-1.695-.258a3.37 3.37 0 0 1-1.273-.766 3.363 3.363 0 0 1-.805-1.258c-.182-.5-.273-1.078-.273-1.734 0-.635.099-1.211.296-1.727.204-.515.487-.955.852-1.32a3.76 3.76 0 0 1 1.312-.844 4.764 4.764 0 0 1 1.719-.296c.516 0 .948.028 1.297.085.354.053.672.12.953.204v1.851a4.813 4.813 0 0 0-1.054-.375 4.694 4.694 0 0 0-1.071-.133c-.354 0-.672.06-.953.18-.281.12-.518.286-.711.5a2.204 2.204 0 0 0-.445.781 3.2 3.2 0 0 0-.149 1c0 .38.055.722.164 1.024.11.302.264.56.461.773.204.208.446.37.727.484.281.11.594.165.938.165.166 0 .341-.011.523-.032.187-.026.372-.06.555-.101.187-.047.369-.099.546-.156.183-.058.352-.12.508-.188v1.695Zm9.524-3.726c0 .625-.089 1.198-.266 1.719a3.796 3.796 0 0 1-.766 1.328 3.397 3.397 0 0 1-1.226.859c-.484.203-1.037.305-1.656.305-.589 0-1.115-.086-1.578-.258a3.082 3.082 0 0 1-1.18-.766 3.452 3.452 0 0 1-.742-1.281c-.172-.516-.258-1.115-.258-1.797 0-.63.088-1.203.266-1.719a3.82 3.82 0 0 1 .773-1.32c.338-.365.75-.646 1.234-.844.485-.203 1.032-.304 1.641-.304.594 0 1.122.088 1.586.265.463.172.857.43 1.18.774.322.343.567.771.734 1.281.172.505.258 1.091.258 1.758Zm-1.985.047c0-.823-.156-1.44-.468-1.852-.308-.417-.763-.625-1.368-.625-.333 0-.617.065-.851.195-.234.131-.427.31-.578.539a2.412 2.412 0 0 0-.336.789 4.417 4.417 0 0 0-.102.969c0 .828.167 1.453.5 1.875.334.417.789.625 1.367.625.318 0 .594-.062.829-.187.234-.13.424-.308.57-.532.146-.229.255-.497.328-.804.073-.307.109-.638.109-.992Zm8.368 3.984v-5.172c0-.87-.323-1.305-.969-1.305-.323 0-.633.131-.93.391-.292.26-.601.615-.93 1.063V235h-1.906v-7.938h1.649l.047 1.172c.161-.203.328-.388.5-.554.177-.167.367-.308.57-.422.203-.12.422-.211.656-.274.234-.062.497-.093.789-.093.406 0 .761.067 1.063.203.302.13.554.317.757.562.204.24.355.532.454.875.104.339.156.719.156 1.141V235h-1.906Zm10.609-2.336c0 .453-.102.841-.305 1.164a2.374 2.374 0 0 1-.797.781 3.57 3.57 0 0 1-1.125.43 5.794 5.794 0 0 1-1.281.141c-.583 0-1.109-.029-1.578-.086a9.904 9.904 0 0 1-1.328-.235v-1.718c.489.203.976.351 1.461.445.489.088.95.133 1.383.133.5 0 .872-.078 1.117-.235.25-.161.375-.369.375-.625a.696.696 0 0 0-.078-.328.78.78 0 0 0-.297-.281 2.815 2.815 0 0 0-.602-.281c-.26-.099-.601-.209-1.023-.328a7.069 7.069 0 0 1-1.031-.368 2.709 2.709 0 0 1-.727-.492 1.868 1.868 0 0 1-.438-.648 2.506 2.506 0 0 1-.14-.875c0-.323.073-.628.219-.914a2.14 2.14 0 0 1 .648-.75 3.341 3.341 0 0 1 1.086-.516c.432-.125.937-.187 1.516-.187.5 0 .942.026 1.328.078.385.052.726.109 1.023.172v1.554a7.748 7.748 0 0 0-1.281-.304 7.496 7.496 0 0 0-1.18-.094c-.39 0-.705.07-.945.211-.234.14-.352.336-.352.586 0 .12.024.226.071.32a.76.76 0 0 0 .273.274c.141.088.333.182.578.281.25.093.578.198.985.312.458.13.843.271 1.156.422.312.146.562.313.75.5.193.188.331.401.414.641.083.239.125.513.125.82Zm8.797 2.258c-.344.078-.69.14-1.039.187-.349.047-.68.071-.992.071-.521 0-.972-.055-1.352-.164a2.389 2.389 0 0 1-.938-.5 2.039 2.039 0 0 1-.546-.852c-.115-.349-.172-.763-.172-1.242v-3.875h-2.133v-1.485h2.133v-2.031l1.953-.508v2.539h3.086v1.485h-3.086v3.734c0 .453.104.797.312 1.031.209.23.558.344 1.047.344.313 0 .617-.026.914-.078.297-.052.568-.112.813-.18v1.524Zm6.922-10.031c0 .171-.032.333-.094.484a1.21 1.21 0 0 1-.266.398c-.109.11-.239.198-.39.266a1.266 1.266 0 0 1-.493.094c-.177 0-.343-.031-.5-.094a1.4 1.4 0 0 1-.398-.266 1.265 1.265 0 0 1-.352-.882 1.266 1.266 0 0 1 .352-.883 1.22 1.22 0 0 1 .398-.266c.157-.068.323-.101.5-.101.178 0 .342.033.493.101.151.063.281.151.39.266.115.114.203.247.266.398.062.151.094.313.094.485Zm-2.11 3.656h-2.242v-1.485h4.195v6.454h2.29V235h-6.758v-1.484h2.515v-4.969Zm12.782 6.375c-.344.078-.691.14-1.039.187-.349.047-.68.071-.993.071a4.93 4.93 0 0 1-1.351-.164 2.389 2.389 0 0 1-.938-.5 2.04 2.04 0 0 1-.547-.852c-.114-.349-.171-.763-.171-1.242v-3.875h-2.133v-1.485h2.133v-2.031l1.953-.508v2.539h3.086v1.485h-3.086v3.734c0 .453.104.797.312 1.031.208.23.557.344 1.047.344.312 0 .617-.026.914-.078.297-.052.568-.112.813-.18v1.524Zm4.14-7.86v5.172c0 .433.081.761.242.985.162.219.407.328.735.328.317 0 .622-.13.914-.391.297-.265.609-.622.937-1.07v-5.024h1.907V235h-1.649l-.047-1.172a6.57 6.57 0 0 1-.508.555c-.171.166-.359.31-.562.429a2.6 2.6 0 0 1-.656.266 2.805 2.805 0 0 1-.782.102 2.71 2.71 0 0 1-1.07-.196 2.061 2.061 0 0 1-.758-.57 2.52 2.52 0 0 1-.461-.875 4.147 4.147 0 0 1-.148-1.148v-5.329h1.906Zm13.453 7.86c-.343.078-.69.14-1.039.187a7.443 7.443 0 0 1-.992.071 4.93 4.93 0 0 1-1.351-.164 2.382 2.382 0 0 1-.938-.5 2.04 2.04 0 0 1-.547-.852 4.014 4.014 0 0 1-.172-1.242v-3.875h-2.133v-1.485h2.133v-2.031l1.953-.508v2.539h3.086v1.485h-3.086v3.734c0 .453.105.797.313 1.031.208.23.557.344 1.047.344.312 0 .617-.026.914-.078a8.5 8.5 0 0 0 .812-.18v1.524Zm9.164-4.5c0 .13-.005.299-.015.508-.005.208-.016.403-.031.586h-5.219c0 .349.052.656.156.922.109.265.26.489.453.671.198.177.432.313.703.407.276.093.581.14.914.14.386 0 .797-.028 1.235-.086.442-.062.901-.161 1.375-.297v1.516a8.623 8.623 0 0 1-.664.156 14.8 14.8 0 0 1-.735.125c-.25.037-.502.063-.758.078a9.044 9.044 0 0 1-.742.032 4.79 4.79 0 0 1-1.625-.258 3.259 3.259 0 0 1-1.219-.758 3.368 3.368 0 0 1-.765-1.25c-.177-.495-.266-1.068-.266-1.719 0-.646.089-1.231.266-1.757.177-.532.427-.985.75-1.36.323-.38.713-.672 1.172-.875a3.734 3.734 0 0 1 1.547-.312c.562 0 1.06.088 1.492.265.432.172.794.414 1.086.727.291.312.513.685.664 1.117.151.432.226.906.226 1.422Zm-1.937-.274a2.277 2.277 0 0 0-.117-.812 1.59 1.59 0 0 0-.344-.578 1.308 1.308 0 0 0-.5-.336 1.668 1.668 0 0 0-.609-.11c-.48 0-.873.162-1.18.485-.307.318-.49.768-.547 1.351h3.297Z" fill="#000"/><path stroke="#000" stroke-width="3" d="M27 158.5h107m-107 0h132M28.5 204v20m0-64v20"/></svg>